<svg width="51" height="51" viewBox="0 0 51 51" fill="none" xmlns="http://www.w3.org/2000/svg">
<path d="M40.4219 21.1959C40.9044 20.7006 41.697 20.6915 42.1923 21.1739C42.6876 21.6563 42.6991 22.4489 42.2168 22.9443L26.3346 39.2519C25.3132 40.3007 24.0985 41.1351 22.7596 41.7046C21.4209 42.2738 19.9851 42.5676 18.5341 42.5678C15.6012 42.5678 12.7947 41.3708 10.7312 39.2519C8.66881 37.1342 7.51563 34.2686 7.51562 31.2876C7.51574 28.3067 8.6689 25.4409 10.7312 23.3233L23.7744 9.93041C24.4856 9.17849 25.3383 8.57822 26.2808 8.16247C27.2298 7.74395 28.2511 7.52135 29.2861 7.51202C30.3213 7.50278 31.3473 7.707 32.3036 8.10867C33.26 8.51046 34.1268 9.10296 34.854 9.84972C35.5811 10.5964 36.1561 11.4811 36.5437 12.454C36.9313 13.4269 37.1248 14.4686 37.1159 15.5179C37.107 16.5667 36.8961 17.6041 36.4924 18.5696C36.0882 19.5357 35.4985 20.4132 34.7586 21.147L34.7562 21.1445L21.7326 34.5301L21.7179 34.5472C20.8703 35.388 19.7266 35.8585 18.5341 35.8481C17.3418 35.8376 16.2078 35.3461 15.3748 34.4909C14.5431 33.6371 14.0771 32.4888 14.0666 31.2949C14.0563 30.1009 14.502 28.9432 15.3186 28.0745L15.3332 28.0574L28.3789 14.6596C28.8613 14.1648 29.654 14.1555 30.1493 14.6376C30.6438 15.12 30.6533 15.9129 30.1713 16.408L17.1281 29.8058C16.7687 30.1964 16.5658 30.7222 16.5705 31.2729C16.5755 31.8313 16.7946 32.36 17.1696 32.745C17.5436 33.1283 18.0422 33.3395 18.5561 33.3441C19.0703 33.3486 19.5724 33.1461 19.9524 32.7695L32.9809 19.3839L32.9956 19.3692L33.355 18.9756C33.6939 18.5651 33.9729 18.1024 34.1816 17.6037C34.4597 16.9387 34.6058 16.2216 34.6119 15.4959C34.618 14.7701 34.4828 14.0508 34.2158 13.3807C33.9488 12.711 33.5567 12.1041 33.0616 11.5957C32.5665 11.0872 31.9788 10.6875 31.3352 10.417C30.6915 10.1466 30.0016 10.0098 29.3081 10.016C28.6152 10.0223 27.9294 10.1697 27.2907 10.4513C26.6517 10.7331 26.0706 11.1444 25.5839 11.6617L25.5692 11.6788L12.5236 25.0692C10.9233 26.7125 10.0197 28.9498 10.0196 31.2876C10.0196 33.6256 10.9256 35.8626 12.526 37.506C14.1253 39.1476 16.2875 40.0638 18.5341 40.0638C19.6471 40.0636 20.7513 39.8393 21.7815 39.4011C22.8117 38.9628 23.7503 38.3192 24.5422 37.506L40.4219 21.1959Z" fill="#284195"/>
</svg>
