<svg width="51" height="51" viewBox="0 0 51 51" fill="none" xmlns="http://www.w3.org/2000/svg">
<path d="M27.8712 38.1855C28.5363 38.3744 28.9232 39.0658 28.7344 39.7309C28.5048 40.5392 28.0246 41.256 27.3601 41.7703C26.6949 42.2849 25.881 42.5675 25.0395 42.5675C24.198 42.5674 23.3841 42.285 22.7189 41.7703C22.1373 41.3202 21.6969 40.7152 21.4425 40.0292L21.3447 39.7309L21.3007 39.4815C21.257 38.9009 21.6261 38.351 22.2079 38.1855C22.7899 38.0202 23.3922 38.2945 23.6604 38.8115L23.7557 39.0462L23.8364 39.2663C23.9336 39.4757 24.0775 39.6544 24.2521 39.7896C24.4843 39.9692 24.7601 40.0634 25.0395 40.0635C25.3191 40.0635 25.597 39.9694 25.8293 39.7896C26.0621 39.6092 26.2395 39.3499 26.3257 39.0462C26.5149 38.3815 27.2063 37.9968 27.8712 38.1855ZM33.9844 21.6626C33.9844 19.3449 33.048 17.117 31.3728 15.4712C29.697 13.8246 27.419 12.8963 25.0395 12.8963C22.66 12.8963 20.3821 13.8246 18.7062 15.4712C17.031 17.117 16.0946 19.3448 16.0946 21.6626V31.615C16.0945 32.5044 15.8495 33.3647 15.4075 34.119H34.6691C34.2275 33.3649 33.9845 32.504 33.9844 31.615V21.6626ZM36.4884 31.615C36.4886 32.2719 36.7546 32.9068 37.2342 33.378C37.7881 33.9222 38.2128 34.119 38.8114 34.119C39.5028 34.119 40.0633 34.6796 40.0634 35.371C40.0634 36.0624 39.5029 36.6229 38.8114 36.6229H11.2676C10.5762 36.6229 10.0156 36.0624 10.0156 35.371C10.0158 34.6796 10.5762 34.119 11.2676 34.119C11.8662 34.119 12.2911 33.9222 12.8448 33.378C13.3245 32.9068 13.5904 32.2719 13.5906 31.615V21.6626C13.5906 18.6668 14.8016 15.7979 16.9505 13.6861C18.8012 11.8678 21.2175 10.739 23.7875 10.4607V8.76371C23.7875 8.07225 24.3481 7.51172 25.0395 7.51172C25.731 7.51172 26.2915 8.07225 26.2915 8.76371V10.4607C28.8615 10.739 31.2779 11.8678 33.1285 13.6861C35.2775 15.7979 36.4884 18.6668 36.4884 21.6626V31.615Z" fill="#284195"/>
</svg>
