<svg width="51" height="51" viewBox="0 0 51 51" fill="none" xmlns="http://www.w3.org/2000/svg">
<path d="M35.0593 11.2677C35.0593 10.4489 34.4891 10.0157 34.0567 10.0157H16.03C15.5976 10.0157 15.0274 10.4489 15.0274 11.2677V38.7552L24.2755 31.5636L24.4516 31.4487C24.8818 31.2176 25.4154 31.256 25.8112 31.5636L35.0593 38.7552V11.2677ZM37.5632 41.3155C37.5632 41.7936 37.291 42.2302 36.8614 42.4403C36.432 42.6503 35.9209 42.5967 35.5434 42.3034L25.0433 34.1361L14.5433 42.3034C14.1658 42.5967 13.6547 42.6503 13.2252 42.4403C12.7957 42.2302 12.5234 41.7936 12.5234 41.3155V11.2677C12.5234 9.32066 13.9731 7.51172 16.03 7.51172H34.0567C36.1136 7.51172 37.5632 9.32068 37.5632 11.2677V41.3155Z" fill="#284195"/>
</svg>
