<svg width="51" height="51" viewBox="0 0 51 51" fill="none" xmlns="http://www.w3.org/2000/svg">
<path d="M15.0276 24.2828C15.0276 24.1448 14.916 24.0313 14.7781 24.0308H10.269C10.1312 24.0313 10.0196 24.1448 10.0196 24.2828V39.8117C10.02 39.9494 10.1314 40.0608 10.269 40.0613H14.7781C14.9157 40.0608 15.0272 39.9494 15.0276 39.8117V24.2828ZM40.0674 24.2828C40.0674 24.1448 39.9558 24.0313 39.818 24.0308H34.8956C34.7577 24.0313 34.6462 24.1448 34.6462 24.2828V39.8117C34.6465 39.9494 34.758 40.0608 34.8956 40.0613H39.818C39.9556 40.0608 40.067 39.9494 40.0674 39.8117V24.2828ZM17.5315 39.8117C17.5312 41.3335 16.2987 42.5669 14.7781 42.5675H10.269C8.74851 42.5669 7.51601 41.3335 7.51562 39.8117V24.2828C7.51562 22.7607 8.74827 21.5251 10.269 21.5246H14.7781C15.0808 21.5247 15.3714 21.5762 15.6438 21.6666L31.2741 7.82645C31.7919 7.36789 32.5814 7.41604 33.0396 7.93414C33.4978 8.4524 33.4498 9.24255 32.932 9.70117L17.4019 23.4532C17.4843 23.7149 17.5315 23.9938 17.5315 24.2828V39.8117ZM42.5714 39.8117C42.571 41.3335 41.3385 42.5669 39.818 42.5675H34.8956C33.3751 42.5669 32.1426 41.3335 32.1422 39.8117V24.2828C32.1422 22.7607 33.3748 21.5251 34.8956 21.5246H39.818C41.3387 21.5251 42.5714 22.7607 42.5714 24.2828V39.8117Z" fill="#284195"/>
</svg>
