<svg width="51" height="51" viewBox="0 0 51 51" fill="none" xmlns="http://www.w3.org/2000/svg">
<path d="M40.0674 23.6824C40.0669 22.8763 39.4137 22.2229 38.6075 22.2226H31.7216V40.0635H40.0674V23.6824ZM14.2964 27.7514V25.0396C14.2964 24.3483 14.8572 23.7879 15.5484 23.7876C16.2399 23.7876 16.8004 24.3481 16.8004 25.0396V27.7514C16.8004 28.4429 16.2399 29.0034 15.5484 29.0034C14.8572 29.0031 14.2964 28.4427 14.2964 27.7514ZM22.4344 27.7514V25.0396C22.4344 24.3483 22.9952 23.7879 23.6864 23.7876C24.3778 23.7876 24.9383 24.3481 24.9383 25.0396V27.7514C24.9383 28.4429 24.3778 29.0034 23.6864 29.0034C22.9952 29.0031 22.4344 28.4427 22.4344 27.7514ZM14.2964 18.2588V15.5445C14.2969 14.8536 14.8575 14.2928 15.5484 14.2925C16.2396 14.2925 16.8 14.8534 16.8004 15.5445V18.2588C16.8 18.9499 16.2396 19.5108 15.5484 19.5108C14.8575 19.5104 14.2969 18.9497 14.2964 18.2588ZM22.4344 18.2588V15.5445C22.4348 14.8536 22.9955 14.2928 23.6864 14.2925C24.3775 14.2925 24.9379 14.8534 24.9383 15.5445V18.2588C24.9379 18.9499 24.3775 19.5108 23.6864 19.5108C22.9955 19.5104 22.4348 18.9497 22.4344 18.2588ZM29.2176 11.4755C29.2172 10.6692 28.5617 10.0157 27.7553 10.0157H11.4794C10.6734 10.0161 10.02 10.6695 10.0196 11.4755V40.0635H18.3654V35.8894C18.3658 35.1985 18.9265 34.6377 19.6174 34.6374C20.3086 34.6374 20.8689 35.1983 20.8694 35.8894V40.0635H29.2176V11.4755ZM31.7216 19.7186H38.6075C40.7967 19.719 42.5709 21.4934 42.5714 23.6824V41.3155C42.5714 42.0069 42.0108 42.5675 41.3194 42.5675H8.76762C8.07616 42.5675 7.51562 42.0069 7.51562 41.3155V11.4755C7.51607 9.28659 9.2905 7.51216 11.4794 7.51172H27.7553C29.9446 7.51172 31.7212 9.28632 31.7216 11.4755V19.7186Z" fill="#284195"/>
</svg>
