<svg width="51" height="51" viewBox="0 0 51 51" fill="none" xmlns="http://www.w3.org/2000/svg">
<path d="M40.0674 20.0315C40.0674 19.7827 39.9932 19.5413 39.8571 19.3371L39.7006 19.1464C39.466 18.9117 39.1475 18.7796 38.8154 18.7796H34.4334C33.9936 18.7796 33.5862 18.5478 33.3599 18.1707L29.9683 12.5196H20.1187L16.727 18.1707C16.5008 18.5478 16.0933 18.7796 15.6536 18.7796H11.2716C10.9396 18.7796 10.6212 18.9116 10.3864 19.1464C10.1516 19.3812 10.0196 19.6995 10.0196 20.0315V36.3074C10.0196 36.6395 10.1517 36.958 10.3864 37.1926C10.6213 37.4274 10.9397 37.5594 11.2716 37.5594H38.8154C39.1473 37.5594 39.4658 37.4274 39.7006 37.1926C39.9353 36.9579 40.0674 36.6394 40.0674 36.3074V20.0315ZM30.0515 26.9957C30.0515 24.2299 27.8093 21.9878 25.0435 21.9878C22.2777 21.9878 20.0355 24.2299 20.0355 26.9957C20.0355 29.7615 22.2776 32.0037 25.0435 32.0037C27.8093 32.0037 30.0515 29.7615 30.0515 26.9957ZM32.5554 26.9957C32.5554 31.1445 29.1922 34.5077 25.0435 34.5077C20.8948 34.5077 17.5315 31.1445 17.5315 26.9957C17.5315 22.847 20.8948 19.4838 25.0435 19.4838C29.1922 19.4838 32.5554 22.847 32.5554 26.9957ZM42.5714 36.3074C42.5714 37.3036 42.1752 38.2588 41.471 38.963C40.7667 39.6673 39.8115 40.0634 38.8154 40.0634H11.2716C10.2753 40.0634 9.32026 39.6671 8.61601 38.963C7.91154 38.2586 7.51562 37.3034 7.51562 36.3074V20.0315C7.51562 19.0354 7.91164 18.0803 8.61601 17.376C9.32038 16.6716 10.2754 16.2756 11.2716 16.2756H14.9444L18.3361 10.6245L18.429 10.49C18.6646 10.1929 19.0245 10.0156 19.4095 10.0156H30.6775C31.1172 10.0156 31.5247 10.2474 31.7509 10.6245L35.1426 16.2756H38.8154C39.8114 16.2756 40.7666 16.6715 41.471 17.376C42.1751 18.0802 42.5714 19.0353 42.5714 20.0315V36.3074Z" fill="#284195"/>
</svg>
