<svg width="51" height="51" viewBox="0 0 51 51" fill="none" xmlns="http://www.w3.org/2000/svg">
<path d="M40.0676 11.2677C40.0676 11.0188 39.9935 10.7775 39.8573 10.5732L39.7008 10.3825C39.4662 10.1479 39.1477 10.0157 38.8156 10.0157H11.2716C11.0226 10.0157 10.7813 10.0899 10.5772 10.226L10.3864 10.3825C10.1516 10.6173 10.0196 10.9357 10.0196 11.2677V32.5517C10.0196 32.8838 10.1518 33.2023 10.3864 33.4369L10.5772 33.5934C10.7814 33.7296 11.0227 33.8037 11.2716 33.8037H16.2796C16.9711 33.8037 17.5316 34.3643 17.5316 35.0557V38.7066L23.3099 34.0776L23.486 33.9602C23.6705 33.8581 23.8792 33.8037 24.0924 33.8037H38.8156C39.1476 33.8037 39.4661 33.6717 39.7008 33.4369C39.9356 33.2022 40.0676 32.8837 40.0676 32.5517V11.2677ZM42.5716 32.5517C42.5716 33.5479 42.1755 34.5031 41.4712 35.2073C40.767 35.9116 39.8118 36.3077 38.8156 36.3077H24.5326L17.0621 42.2938C16.6865 42.5944 16.1705 42.6537 15.7368 42.4455C15.3029 42.237 15.0276 41.797 15.0276 41.3157V36.3077H11.2716C10.4001 36.3077 9.56052 36.004 8.89234 35.4567L8.61602 35.2073C7.91155 34.503 7.51562 33.5477 7.51562 32.5517V11.2677C7.51562 10.2716 7.91163 9.31649 8.61602 8.61211L8.89234 8.36269C9.56062 7.81531 10.4002 7.51172 11.2716 7.51172H38.8156C39.8116 7.51172 40.7669 7.90764 41.4712 8.61211L41.7207 8.88843C42.2679 9.55662 42.5716 10.3962 42.5716 11.2677V32.5517Z" fill="#284195"/>
</svg>
