<svg width="51" height="51" viewBox="0 0 51 51" fill="none" xmlns="http://www.w3.org/2000/svg">
<path d="M12.8491 12.5595C19.5912 6.31291 30.9 5.57196 37.6226 11.9824L38.2583 12.6255L38.2632 12.6304C41.2622 15.8877 42.6277 18.5438 42.5694 20.8417C42.5078 23.2537 40.9111 24.8062 39.2731 25.8717C38.4439 26.4112 37.5336 26.8714 36.6836 27.2851C35.808 27.7112 35.0204 28.0745 34.3189 28.4589C33.6141 28.8451 33.1224 29.1875 32.8224 29.5104C32.5559 29.7974 32.5032 29.9978 32.5143 30.1804L32.5583 30.5227C32.6952 31.2632 33.0511 31.6113 33.4753 31.831C34.0722 32.1398 34.938 32.2513 35.9818 32.2418C36.4859 32.2372 36.9892 32.2058 37.4807 32.1733C37.9532 32.1421 38.4507 32.1057 38.8697 32.1048C39.2227 32.1041 39.8006 32.118 40.2782 32.3616C40.5671 32.5092 40.9068 32.7854 41.068 33.2517C41.2205 33.693 41.1403 34.1001 41.0435 34.3741L41.0411 34.3814C38.8488 40.4681 33.3314 42.6825 27.7606 42.5635C22.2289 42.4452 16.3206 40.0541 12.7048 36.548V36.5455C9.36681 33.3514 7.49089 29.0384 7.51587 24.5342C7.54102 20.0258 9.46814 15.7261 12.8467 12.5644L12.8491 12.5595ZM36.4219 14.325C30.8913 8.41101 20.6702 8.72895 14.551 14.3983C11.6589 17.1077 10.0414 20.7558 10.0199 24.5464C10 28.1026 11.3864 31.5476 13.9201 34.22L14.4434 34.7458L14.4483 34.7507C17.5741 37.7816 22.8627 39.9536 27.8144 40.0595C32.3228 40.1558 36.2746 38.5627 38.2119 34.6431C38.0405 34.6533 37.8525 34.6588 37.647 34.6724C37.1565 34.7049 36.5895 34.7404 36.0062 34.7458C34.8739 34.7561 33.4907 34.6564 32.326 34.0538C31.0496 33.3932 30.1681 32.1983 30.0176 30.3882V30.3785C29.9387 29.3203 30.3795 28.4642 30.9884 27.8084C31.569 27.1832 32.3475 26.684 33.1158 26.263C33.888 25.8399 34.7769 25.4278 35.5881 25.033C36.425 24.6257 37.2154 24.2206 37.9062 23.7712C39.3085 22.859 40.0382 21.9412 40.0679 20.7782C40.1001 19.5014 39.3205 17.4757 36.4219 14.3274V14.325ZM24.5573 34.0856C24.5573 33.9406 24.527 33.7963 24.4717 33.6625C24.4164 33.529 24.3363 33.4076 24.2345 33.3055C24.1324 33.2033 24.0106 33.1211 23.8775 33.0659C23.7448 33.0109 23.6027 32.9828 23.4593 32.9827C23.3154 32.9827 23.1718 33.0107 23.0387 33.0659C22.9056 33.1211 22.7838 33.2033 22.6817 33.3055C22.58 33.4076 22.4997 33.529 22.4445 33.6625C22.3892 33.7963 22.3614 33.9406 22.3614 34.0856C22.3616 34.3775 22.4763 34.657 22.6817 34.8632C22.8878 35.0696 23.1686 35.1859 23.4593 35.1859C23.7497 35.1857 24.0286 35.0694 24.2345 34.8632C24.44 34.657 24.557 34.3777 24.5573 34.0856ZM18.7423 27.0993C18.7423 26.8065 18.6256 26.5257 18.4195 26.3192C18.2136 26.113 17.9347 25.9967 17.6444 25.9965C17.3537 25.9965 17.0729 26.1128 16.8667 26.3192C16.6609 26.5257 16.5464 26.8067 16.5464 27.0993C16.5465 27.3919 16.6607 27.673 16.8667 27.8793C17.0729 28.0858 17.3537 28.1997 17.6444 28.1997C17.9346 28.1995 18.2136 28.0853 18.4195 27.8793C18.6256 27.673 18.7422 27.3919 18.7423 27.0993ZM21.0922 18.5945C21.0921 18.302 20.9755 18.0207 20.7695 17.8144C20.5636 17.6086 20.2845 17.4943 19.9943 17.4941C19.7036 17.4941 19.4228 17.608 19.2167 17.8144C19.0107 18.0207 18.8965 18.302 18.8964 18.5945C18.8964 18.8869 19.011 19.1681 19.2167 19.3746C19.4228 19.581 19.7036 19.6973 19.9943 19.6973C20.2848 19.6972 20.5635 19.5808 20.7695 19.3746C20.9756 19.1681 21.0922 18.8873 21.0922 18.5945ZM30.1839 16.3962C30.1838 16.2518 30.1558 16.1089 30.1008 15.9756C30.0454 15.8418 29.9632 15.7183 29.8611 15.6161C29.7595 15.5145 29.639 15.4339 29.5066 15.3789C29.3735 15.3237 29.2299 15.2958 29.086 15.2958C28.9421 15.2958 28.7984 15.3237 28.6654 15.3789C28.533 15.434 28.4124 15.5145 28.3108 15.6161C28.2087 15.7183 28.1265 15.8418 28.0712 15.9756C28.0162 16.1089 27.9881 16.2518 27.988 16.3962C27.988 16.689 28.1046 16.9697 28.3108 17.1762C28.5169 17.3825 28.7954 17.4989 29.086 17.499C29.3765 17.499 29.6551 17.3825 29.8611 17.1762C30.0673 16.9697 30.1839 16.689 30.1839 16.3962ZM27.0613 34.0856C27.061 35.0406 26.6821 35.9575 26.0073 36.6336C25.3321 37.3098 24.415 37.6897 23.4593 37.6899C22.5035 37.6899 21.5867 37.3097 20.9113 36.6336C20.2362 35.9575 19.8576 35.0409 19.8574 34.0856C19.8574 33.6125 19.9505 33.1436 20.1312 32.7064C20.3121 32.2691 20.5769 31.87 20.9113 31.5351C21.2456 31.2004 21.6432 30.9338 22.0802 30.7526C22.517 30.5715 22.9864 30.4787 23.4593 30.4787C23.9323 30.4788 24.4016 30.5713 24.8385 30.7526C25.2755 30.9339 25.673 31.2003 26.0073 31.5351C26.3416 31.8699 26.6066 32.2692 26.7874 32.7064C26.9679 33.1434 27.0613 33.6127 27.0613 34.0856ZM21.2463 27.0993C21.2462 28.0545 20.8672 28.9711 20.1924 29.6473C19.5171 30.3235 18.6001 30.7035 17.6444 30.7037C16.6884 30.7037 15.7717 30.3237 15.0963 29.6473C14.4211 28.9711 14.0425 28.0548 14.0424 27.0993C14.0424 26.1436 14.421 25.2252 15.0963 24.5488C15.7717 23.8729 16.6888 23.4925 17.6444 23.4925C18.6 23.4927 19.5171 23.8726 20.1924 24.5488C20.8677 25.2252 21.2463 26.1436 21.2463 27.0993ZM23.5962 18.5945C23.5962 19.5502 23.2177 20.4686 22.5423 21.145C21.867 21.8212 20.9501 22.2012 19.9943 22.2013C19.0386 22.2013 18.1216 21.821 17.4463 21.145C16.7709 20.4686 16.3924 19.5502 16.3924 18.5945C16.3925 17.6391 16.7711 16.7227 17.4463 16.0465C18.1217 15.3701 19.0384 14.9901 19.9943 14.9901C20.9501 14.9903 21.867 15.3702 22.5423 16.0465C23.2172 16.7226 23.5961 17.6393 23.5962 18.5945ZM32.6879 16.3962C32.6879 17.3519 32.3093 18.2703 31.634 18.9466C30.9586 19.6228 30.0418 20.003 29.086 20.003C28.1301 20.0029 27.2133 19.6229 26.538 18.9466C25.8626 18.2703 25.484 17.3519 25.484 16.3962C25.4841 15.9232 25.5771 15.4541 25.7579 15.017C25.9387 14.58 26.2038 14.1828 26.538 13.8481C26.8723 13.5133 27.2697 13.247 27.7068 13.0656C28.1439 12.8843 28.6127 12.7918 29.086 12.7918C29.5592 12.7918 30.028 12.8844 30.4651 13.0656C30.9023 13.247 31.2996 13.5132 31.634 13.8481C31.9682 14.1829 32.2332 14.58 32.414 15.017C32.5948 15.4541 32.6878 15.9232 32.6879 16.3962Z" fill="#284195"/>
</svg>
