<svg width="51" height="51" viewBox="0 0 51 51" fill="none" xmlns="http://www.w3.org/2000/svg">
<path d="M40.0674 18.2588C40.0674 17.4522 39.4141 16.7967 38.6075 16.7965H18.2627C17.456 16.7965 16.8029 17.4521 16.8029 18.2588V38.6036C16.8033 39.41 17.4563 40.0635 18.2627 40.0635H38.6075C39.4138 40.0633 40.0669 39.4099 40.0674 38.6036V18.2588ZM7.51562 31.8204V29.1086C7.51562 28.4171 8.07616 27.8566 8.76762 27.8566C9.45907 27.8566 10.0196 28.4171 10.0196 29.1086V31.8204C10.0196 32.5118 9.45907 33.0724 8.76762 33.0724C8.07616 33.0724 7.51562 32.5118 7.51562 31.8204ZM7.51562 22.3278V19.6135C7.51607 18.9224 8.07643 18.3615 8.76762 18.3615C9.4588 18.3615 10.0192 18.9224 10.0196 19.6135V22.3278C10.0192 23.0188 9.4588 23.5797 8.76762 23.5797C8.07643 23.5797 7.51606 23.0188 7.51562 22.3278ZM7.51562 12.8327V11.4755C7.51607 9.28659 9.2905 7.51216 11.4794 7.51172H12.8366C13.528 7.51172 14.0886 8.07225 14.0886 8.76371C14.0886 9.45516 13.528 10.0157 12.8366 10.0157H11.4794C10.6734 10.0161 10.02 10.6695 10.0196 11.4755V12.8327C10.0196 13.5241 9.45907 14.0847 8.76762 14.0847C8.07616 14.0847 7.51562 13.5241 7.51562 12.8327ZM22.3317 7.51172L22.5835 7.53617C23.154 7.65297 23.5837 8.15874 23.5837 8.76371C23.5837 9.36868 23.154 9.87444 22.5835 9.99125L22.3317 10.0157H19.6174C18.9263 10.0153 18.3654 9.45489 18.3654 8.76371C18.3654 8.07253 18.9263 7.51216 19.6174 7.51172H22.3317ZM31.8243 7.51172C32.5157 7.51172 33.0763 8.07225 33.0763 8.76371C33.0763 9.45516 32.5157 10.0157 31.8243 10.0157H29.1125C28.421 10.0157 27.8605 9.45516 27.8605 8.76371C27.8605 8.07225 28.421 7.51172 29.1125 7.51172H31.8243ZM42.5714 38.6036C42.5709 40.7928 40.7967 42.5672 38.6075 42.5675H18.2627C16.0734 42.5675 14.2993 40.7929 14.2989 38.6036V18.2588C14.2989 16.0692 16.0731 14.2925 18.2627 14.2925H38.6075C40.797 14.2927 42.5714 16.0693 42.5714 18.2588V38.6036Z" fill="#284195"/>
</svg>
