<svg width="51" height="51" viewBox="0 0 51 51" fill="none" xmlns="http://www.w3.org/2000/svg">
<path d="M34.1166 16.0483H15.9626V38.6626C15.9626 39.0874 16.1105 39.4658 16.3294 39.7189C16.5439 39.9666 16.7934 40.0637 17.0068 40.0637H33.0725C33.2859 40.0637 33.5356 39.9665 33.7498 39.7189C33.9688 39.4657 34.1166 39.0872 34.1166 38.6626V16.0483ZM20.3446 33.1704V23.1324C20.3446 22.4409 20.9052 21.8804 21.5966 21.8804C22.2881 21.8804 22.8486 22.4409 22.8486 23.1324V33.1704C22.8486 33.8618 22.2881 34.4224 21.5966 34.4224C20.9052 34.4224 20.3446 33.8618 20.3446 33.1704ZM27.2306 33.1704V23.1324C27.2306 22.4409 27.7912 21.8804 28.4826 21.8804C29.1741 21.8804 29.7346 22.4409 29.7346 23.1324V33.1704C29.7346 33.8618 29.1741 34.4224 28.4826 34.4224C27.7912 34.4224 27.2306 33.8618 27.2306 33.1704ZM28.8739 11.0256C28.8737 10.7175 28.7633 10.4444 28.6 10.2627C28.4405 10.0853 28.2534 10.0157 28.0914 10.0157H21.9879C21.8259 10.0157 21.6388 10.0853 21.4792 10.2627C21.3159 10.4444 21.2055 10.7175 21.2054 11.0256V13.5443H28.8739V11.0256ZM31.3779 13.5443H38.8116C39.5031 13.5443 40.0636 14.1048 40.0636 14.7963C40.0632 15.4874 39.5028 16.0483 38.8116 16.0483H36.6206V38.6626C36.6206 39.6441 36.2839 40.616 35.6425 41.3573C34.996 42.1043 34.0765 42.5677 33.0725 42.5677H17.0068C16.0027 42.5677 15.0833 42.1041 14.4367 41.3573C13.7952 40.6159 13.4586 39.644 13.4586 38.6626V16.0483H11.2676C10.5764 16.0483 10.016 15.4874 10.0156 14.7963C10.0156 14.1048 10.5762 13.5443 11.2676 13.5443H18.7014V11.0256C18.7015 10.1343 19.0192 9.25671 19.6184 8.5901C20.2219 7.91888 21.0707 7.51172 21.9879 7.51172H28.0914C29.0085 7.51172 29.8573 7.91888 30.4609 8.5901C31.0601 9.25671 31.3777 10.1343 31.3779 11.0256V13.5443Z" fill="#284195"/>
</svg>
