<svg width="51" height="51" viewBox="0 0 51 51" fill="none" xmlns="http://www.w3.org/2000/svg">
<path d="M40.0664 15.1044C40.0664 14.8348 40.0126 14.5662 39.9099 14.317C39.8077 14.0692 39.6578 13.8452 39.4697 13.6567L39.4673 13.6519L36.4571 10.6172L36.4522 10.6124C36.266 10.4229 36.0446 10.2719 35.8018 10.1698C35.5591 10.0677 35.2985 10.0157 35.0364 10.0157C34.8397 10.0157 34.6446 10.046 34.4569 10.1037L34.271 10.1698C34.0281 10.2719 33.8069 10.4228 33.6206 10.6124L33.6157 10.6172L12.8234 31.5465L18.7801 37.5033L39.4648 16.5544L39.4697 16.5495C39.6578 16.3611 39.8077 16.1371 39.9099 15.8893C40.0125 15.6404 40.0662 15.3735 40.0664 15.1044ZM10.3854 39.748L16.391 38.655L11.6496 33.9136L10.3854 39.748ZM42.5704 15.1044C42.5702 15.552 42.5035 15.996 42.3747 16.4224L42.2256 16.843C41.9988 17.3931 41.6641 17.8915 41.245 18.3126L19.4183 40.4205C19.2376 40.6035 19.0038 40.7265 18.7508 40.7726L8.99158 42.5479C8.5802 42.6227 8.15747 42.4865 7.86675 42.186C7.57619 41.8855 7.45576 41.4599 7.54397 41.0514L9.6078 31.5098C9.65848 31.2766 9.77702 31.063 9.94525 30.8936L31.838 8.85419C32.2555 8.43018 32.7523 8.09186 33.3003 7.8614C33.8499 7.63024 34.4401 7.51176 35.0364 7.51172C35.6323 7.51172 36.2229 7.63031 36.7726 7.8614C37.3204 8.09181 37.8174 8.43032 38.2349 8.85419L41.2426 11.8863L41.5409 12.2165C41.8238 12.5618 42.0546 12.9486 42.2256 13.3633L42.3747 13.7839C42.5036 14.2107 42.5704 14.6563 42.5704 15.1044Z" fill="#284195"/>
</svg>
