<svg width="51" height="51" viewBox="0 0 51 51" fill="none" xmlns="http://www.w3.org/2000/svg">
<path fill-rule="evenodd" clip-rule="evenodd" d="M17.3386 7.55131C17.4113 7.57572 17.5303 7.62574 17.6031 7.66248C17.6758 7.69922 18.7247 8.68008 19.934 9.84218C22.4413 12.2517 22.3412 12.1327 22.3434 12.7064C22.3455 13.2723 22.4241 13.1791 19.9189 15.5845C18.5126 16.935 17.6801 17.7079 17.5803 17.7561C17.3461 17.8691 16.9759 17.9208 16.7227 17.8757C16.2216 17.7865 15.8001 17.4282 15.6552 16.9684C15.5504 16.636 15.6068 16.2133 15.7961 15.9121C15.8419 15.8392 16.2874 15.3826 16.7861 14.8974L17.6928 14.0152H15.7827C14.2725 14.0152 13.8064 14.0264 13.556 14.0686C12.1488 14.3059 10.9506 15.2681 10.4641 16.5515C10.2177 17.2016 10.2257 17.0848 10.2013 20.4177L10.1792 23.4553L10.0866 23.6372C9.96797 23.8702 9.66527 24.1616 9.42355 24.2754C9.14745 24.4054 8.67696 24.4197 8.36569 24.3074C8.05532 24.1954 7.71152 23.8665 7.59731 23.5722C7.516 23.3626 7.51562 23.3481 7.51562 20.3432C7.51562 17.7873 7.52466 17.2705 7.57445 16.9705C7.81878 15.4987 8.43653 14.32 9.49586 13.3043C10.5193 12.323 11.671 11.7499 13.1638 11.4792C13.402 11.436 13.9175 11.4207 15.5971 11.4071L17.7282 11.3897L16.8006 10.4925C16.2904 9.99904 15.8317 9.5298 15.7812 9.44977C15.5692 9.11327 15.5449 8.63447 15.7211 8.26399C15.8412 8.01135 16.1295 7.73455 16.394 7.61781C16.6354 7.5113 17.118 7.47732 17.3386 7.55131ZM38.9869 19.2207C40.4651 19.3587 41.7947 20.3605 42.338 21.7455C42.3694 21.8256 42.4312 22.0056 42.4752 22.1457L42.5553 22.4004L42.5678 30.7127C42.577 36.8893 42.569 39.0952 42.5364 39.2979C42.409 40.0911 42.0385 40.7944 41.4297 41.3985C40.8113 42.0121 40.0274 42.407 39.1758 42.5338C38.9652 42.5652 36.6743 42.5729 30.2596 42.564L21.6267 42.552L21.3622 42.4749C20.5593 42.2407 20.0059 41.9346 19.4929 41.4406C18.8116 40.7846 18.4215 39.9908 18.3245 39.0632C18.2692 38.5341 18.2664 23.2985 18.3215 22.7391C18.506 20.8655 20.0055 19.411 21.9509 19.2187C22.4134 19.173 38.4961 19.1749 38.9869 19.2207ZM38.8924 21.851C38.7717 21.814 37.0628 21.806 30.3918 21.8115C22.7694 21.8177 22.0283 21.8235 21.8817 21.8777C21.5408 22.0038 21.1681 22.3751 21.0697 22.6865C21.0322 22.8053 21.0222 24.532 21.0222 30.9128V38.9887L21.128 39.207C21.3275 39.6185 21.6777 39.8761 22.1409 39.9521C22.3113 39.9801 24.7988 39.9887 30.5996 39.9813L38.8169 39.9709L39.0385 39.8849C39.1893 39.8263 39.3296 39.7319 39.478 39.589C39.6264 39.4461 39.7246 39.3109 39.7854 39.1657L39.8747 38.9524L39.8855 31.0401C39.8932 25.4478 39.8843 23.0597 39.8551 22.8952C39.8036 22.6044 39.7034 22.4086 39.5024 22.2063C39.3379 22.0408 39.1448 21.9283 38.8924 21.851Z" fill="#284195"/>
</svg>
