<svg width="51" height="51" viewBox="0 0 51 51" fill="none" xmlns="http://www.w3.org/2000/svg">
<path d="M40.0676 11.6859C40.0676 10.708 39.3753 10.0157 38.3975 10.0157H11.6898C10.7119 10.0157 10.0196 10.708 10.0196 11.6859C10.0197 11.9982 10.0599 12.2025 10.1199 12.3583C10.1778 12.5083 10.2779 12.6776 10.4867 12.8865L21.7547 24.1545C21.9895 24.3893 22.1215 24.7077 22.1215 25.0397V38.3447L27.9658 32.6471V25.0397C27.9658 24.7077 28.0978 24.3893 28.3326 24.1545L39.6006 12.8865C39.8094 12.6776 39.9095 12.5083 39.9674 12.3583C40.0273 12.2025 40.0676 11.9982 40.0676 11.6859ZM42.5716 11.6859C42.5716 12.2074 42.5058 12.7339 42.3051 13.2558C42.1022 13.7833 41.7871 14.2407 41.371 14.6569L30.4698 25.5581V33.1777C30.4698 33.5153 30.3324 33.8395 30.0907 34.0752L21.7449 42.2132C21.3844 42.5645 20.8467 42.6655 20.3829 42.4699C19.9193 42.2741 19.6175 41.819 19.6175 41.3157V25.5581L8.71627 14.6569C8.30018 14.2407 7.98507 13.7833 7.78216 13.2558C7.58147 12.7339 7.51569 12.2074 7.51562 11.6859C7.51562 9.32506 9.329 7.51172 11.6898 7.51172H38.3975C40.7582 7.51172 42.5716 9.32507 42.5716 11.6859Z" fill="#284195"/>
</svg>
