<svg width="51" height="51" viewBox="0 0 51 51" fill="none" xmlns="http://www.w3.org/2000/svg">
<path d="M7.51562 38.6039V30.4659C7.51562 29.7744 8.07616 29.2139 8.76762 29.2139C9.45909 29.2139 10.0196 29.7744 10.0196 30.4659V38.6039C10.0201 39.4099 10.6734 40.0633 11.4795 40.0637H19.6175C20.3089 40.0637 20.8695 40.6243 20.8695 41.3157C20.8695 42.0072 20.3089 42.5677 19.6175 42.5677H11.4795C9.29053 42.5673 7.51606 40.7929 7.51562 38.6039ZM40.0676 38.6039V30.4659C40.0676 29.7744 40.6282 29.2139 41.3196 29.2139C42.0109 29.2141 42.5716 29.7745 42.5716 30.4659V38.6039C42.5712 40.7928 40.7966 42.5671 38.6078 42.5677H30.4698C29.7783 42.5677 29.2178 42.0072 29.2178 41.3157C29.2178 40.6243 29.7783 40.0637 30.4698 40.0637H38.6078C39.4137 40.0631 40.0672 39.4098 40.0676 38.6039ZM7.51562 19.6136V11.4756C7.51607 9.2866 9.29051 7.51216 11.4795 7.51172H19.6175C20.3089 7.51172 20.8695 8.07226 20.8695 8.76372C20.8695 9.45518 20.3089 10.0157 19.6175 10.0157H11.4795C10.6734 10.0162 10.0201 10.6695 10.0196 11.4756V19.6136C10.0196 20.305 9.45909 20.8656 8.76762 20.8656C8.07616 20.8656 7.51562 20.305 7.51562 19.6136ZM40.0676 19.6136V11.4756C40.0672 10.6695 39.4139 10.0162 38.6078 10.0157H30.4698C29.7783 10.0157 29.2178 9.45518 29.2178 8.76372C29.2178 8.07226 29.7783 7.51172 30.4698 7.51172H38.6078C40.7968 7.51216 42.5712 9.28662 42.5716 11.4756V19.6136C42.5716 20.305 42.0111 20.8656 41.3196 20.8656C40.6282 20.8656 40.0676 20.305 40.0676 19.6136Z" fill="#284195"/>
</svg>
