<svg width="51" height="51" viewBox="0 0 51 51" fill="none" xmlns="http://www.w3.org/2000/svg">
<path d="M37.5596 23.7877C37.5596 23.0963 36.9991 22.5357 36.3076 22.5357H13.7716C13.0802 22.5357 12.5196 23.0963 12.5196 23.7877V38.8117C12.5196 39.5032 13.0802 40.0637 13.7716 40.0637H36.3076C36.9991 40.0637 37.5596 39.5032 37.5596 38.8117V23.7877ZM22.5356 31.2997C22.5356 29.9168 23.6567 28.7957 25.0396 28.7957C26.4225 28.7957 27.5436 29.9168 27.5436 31.2997C27.5436 32.6826 26.4225 33.8037 25.0396 33.8037C23.6567 33.8037 22.5356 32.6826 22.5356 31.2997ZM32.5516 17.5277C32.5516 15.5354 31.7597 13.6252 30.3508 12.2165C28.9421 10.8077 27.0319 10.0157 25.0396 10.0157C23.0473 10.0157 21.1372 10.8077 19.7284 12.2165C18.3196 13.6253 17.5276 15.5354 17.5276 17.5277V20.0317H32.5516V17.5277ZM35.0556 20.0317H36.3076C38.3821 20.0317 40.0636 21.7134 40.0636 23.7877V38.8117C40.0636 40.8861 38.382 42.5677 36.3076 42.5677H13.7716C11.6973 42.5677 10.0156 40.8862 10.0156 38.8117V23.7877C10.0156 21.7133 11.6973 20.0317 13.7716 20.0317H15.0236V17.5277C15.0236 14.8713 16.0796 12.3244 17.958 10.4461C19.8363 8.56772 22.3832 7.51172 25.0396 7.51172C27.696 7.51172 30.2429 8.56772 32.1212 10.4461C33.9998 12.3245 35.0556 14.8714 35.0556 17.5277V20.0317Z" fill="#284195"/>
</svg>
