<svg width="51" height="51" viewBox="0 0 51 51" fill="none" xmlns="http://www.w3.org/2000/svg">
<path d="M40.0676 12.2385C40.0676 11.2884 39.1747 10.5902 38.2532 10.8202L31.7218 12.4513V39.7091L38.9623 37.9021C39.6116 37.7392 40.0671 37.1557 40.0676 36.4862V12.2385ZM20.8695 37.6233L29.2178 39.7116V12.4537L20.8695 10.3654V37.6233ZM10.0196 37.8409C10.0196 38.7912 10.9125 39.4892 11.834 39.2592L18.3655 37.6257V10.3678L11.1249 12.1774C10.4756 12.3402 10.0202 12.9238 10.0196 13.5932V37.8409ZM42.5716 36.4862C42.5711 38.3048 41.3331 39.8889 39.5688 40.3303L30.773 42.531C30.5736 42.5809 30.3635 42.5809 30.1641 42.531L19.6175 39.8925L12.4429 41.6874C9.94052 42.3131 7.51562 40.4202 7.51562 37.8409V13.5932C7.51616 11.7746 8.7542 10.1905 10.5185 9.74918L19.3143 7.5484L19.6175 7.51172C19.7197 7.51165 19.8232 7.52341 19.9231 7.5484L30.4673 10.1844L37.6443 8.39203C40.1465 7.76646 42.5716 9.65921 42.5716 12.2385V36.4862Z" fill="#284195"/>
</svg>
