<svg width="51" height="51" viewBox="0 0 51 51" fill="none" xmlns="http://www.w3.org/2000/svg">
<path d="M40.0674 15.2731C40.0668 14.5746 39.4621 13.9212 38.6075 13.9208H34.4334V16.5764C34.4333 17.2677 33.8728 17.8284 33.1814 17.8284C32.4901 17.8284 31.9296 17.2677 31.9294 16.5764V13.9208H26.2955V16.5764C26.2953 17.2677 25.7349 17.8284 25.0435 17.8284C24.3521 17.8284 23.7917 17.2677 23.7915 16.5764V13.9208H18.1575V16.5764C18.1574 17.2677 17.5969 17.8284 16.9056 17.8284C16.2142 17.8284 15.6537 17.2677 15.6536 16.5764V13.9208H11.4794C10.6249 13.9212 10.0202 14.5746 10.0196 15.2731V38.7112C10.0196 39.4101 10.6245 40.0631 11.4794 40.0635H38.6075C39.4625 40.0631 40.0674 39.4101 40.0674 38.7112V15.2731ZM26.4006 30.9499L26.6525 30.9743C27.2227 31.0913 27.6526 31.597 27.6526 32.2019C27.6522 32.8063 27.2224 33.31 26.6525 33.4269L26.4006 33.4538H15.5484C14.8575 33.4535 14.2969 32.8927 14.2964 32.2019C14.2964 31.5106 14.8572 30.9502 15.5484 30.9499H26.4006ZM34.5386 23.1371L34.7904 23.1616C35.3607 23.2785 35.7906 23.7843 35.7906 24.3891C35.7903 24.9936 35.3604 25.4973 34.7904 25.6142L34.5386 25.6411H15.5484C14.8574 25.6408 14.2967 25.0801 14.2964 24.3891C14.2964 23.6979 14.8572 23.1375 15.5484 23.1371H34.5386ZM42.5714 38.7112C42.5714 40.8883 40.7482 42.567 38.6075 42.5675H11.4794C9.33888 42.567 7.51562 40.8884 7.51562 38.7112V15.2731C7.51617 13.0965 9.33919 11.4173 11.4794 11.4169H15.6536V8.76371C15.6536 8.07225 16.2141 7.51172 16.9056 7.51172C17.597 7.51172 18.1575 8.07225 18.1575 8.76371V11.4169H23.7915V8.76371C23.7915 8.07225 24.352 7.51172 25.0435 7.51172C25.7349 7.51172 26.2955 8.07225 26.2955 8.76371V11.4169H31.9294V8.76371C31.9294 8.07225 32.49 7.51172 33.1814 7.51172C33.8729 7.51172 34.4334 8.07225 34.4334 8.76371V11.4169H38.6075C40.7479 11.4173 42.5708 13.0965 42.5714 15.2731V38.7112Z" fill="#284195"/>
</svg>
