<svg width="51" height="51" viewBox="0 0 51 51" fill="none" xmlns="http://www.w3.org/2000/svg">
<path fill-rule="evenodd" clip-rule="evenodd" d="M23.3014 7.5547C22.2464 7.73651 21.2991 8.45219 20.6805 9.53494C20.5868 9.69897 20.2779 10.3937 19.9941 11.0787C19.7103 11.7638 19.4519 12.3498 19.4197 12.381C19.3876 12.4122 18.7557 12.801 18.0156 13.2449L16.6699 14.0521L15.2368 13.8289C14.4485 13.7062 13.6539 13.5955 13.4708 13.583C13.1096 13.5584 12.6557 13.6078 12.3014 13.7105C11.557 13.9261 10.8713 14.4086 10.4733 14.9968C10.2161 15.377 9.19833 17.1945 9.07833 17.4879C8.65395 18.5254 8.66203 19.7147 9.09948 20.6045C9.25775 20.9265 9.26016 20.9297 10.3694 22.3139L11.1996 23.3497V26.736L10.3851 27.7578C9.93715 28.3197 9.50368 28.8787 9.42186 28.9999C9.19588 29.3346 8.97256 29.8278 8.87039 30.218C8.79192 30.5178 8.77835 30.6431 8.77741 31.0777C8.77619 31.6376 8.82785 31.924 9.03062 32.4818C9.13244 32.7619 10.0977 34.5183 10.4089 34.9897C10.8307 35.6287 11.6272 36.1703 12.4857 36.4018C12.7761 36.4801 12.8953 36.4931 13.3143 36.4924C13.7448 36.4917 13.976 36.464 15.2368 36.2624L16.6699 36.0332L18.0156 36.8406C18.7557 37.2847 19.3876 37.6736 19.4197 37.7048C19.4519 37.736 19.7103 38.322 19.9941 39.0071C20.5407 40.3268 20.7017 40.6395 21.0737 41.1031C21.5071 41.6434 22.1949 42.1459 22.8123 42.3735C23.3445 42.5696 23.329 42.5683 25.0763 42.5676L26.7017 42.567L27.0341 42.4753C27.6535 42.3045 28.1309 42.0358 28.5854 41.6024C29.185 41.0307 29.4142 40.635 30.0886 39.0071C30.3723 38.322 30.6308 37.736 30.663 37.7048C30.6951 37.6736 31.3269 37.2848 32.0671 36.8409L33.4128 36.0336L34.8459 36.2571C35.6341 36.38 36.4363 36.4901 36.6286 36.5017C37.7897 36.572 38.9356 36.0335 39.5894 35.1104C39.8334 34.7659 40.8717 32.9223 41.0044 32.5979C41.4287 31.5603 41.4207 30.371 40.9832 29.4812C40.8249 29.1593 40.8225 29.156 39.7133 27.7719L38.8831 26.736V23.3497L39.6976 22.328C40.6328 21.1547 40.7582 20.9777 40.9649 20.5387C41.3513 19.718 41.4213 18.838 41.1695 17.9658C41.0337 17.4952 40.9252 17.2707 40.3173 16.2018C39.635 15.0019 39.6028 14.953 39.2855 14.6369C38.6544 14.0081 37.7653 13.6196 36.8733 13.5828C36.5247 13.5685 36.3448 13.5897 34.9508 13.8098L33.4128 14.0525L32.0671 13.2451C31.3269 12.801 30.695 12.4122 30.6628 12.381C30.6306 12.3498 30.389 11.8032 30.1259 11.1664C29.5791 9.84317 29.4418 9.56115 29.153 9.1678C28.6962 8.54556 27.945 7.95941 27.2984 7.72055C26.7624 7.52256 26.7757 7.52382 25.1287 7.514C23.925 7.50681 23.5279 7.51565 23.3014 7.5547ZM23.6432 10.0584C23.6912 10.0433 24.3204 10.0338 25.0413 10.0373C26.345 10.0437 26.353 10.0441 26.521 10.1272C26.7328 10.2318 27.0648 10.5377 27.2026 10.7552C27.2603 10.8463 27.5693 11.5524 27.8892 12.3243C28.209 13.0962 28.5081 13.7918 28.5537 13.8701C28.5993 13.9484 28.7049 14.0756 28.7884 14.1528C28.939 14.2921 32.3845 16.39 32.6734 16.5183C32.9806 16.6546 33.0883 16.6472 34.9192 16.3627C35.8631 16.216 36.7001 16.096 36.7792 16.096C36.9923 16.096 37.2871 16.2211 37.4664 16.3876C37.6718 16.5784 38.6404 18.2748 38.7494 18.6346C38.8391 18.9308 38.8229 19.2021 38.6995 19.4727C38.6483 19.585 38.2189 20.1564 37.633 20.8918C37.0936 21.5689 36.6122 22.1839 36.5633 22.2584C36.371 22.5513 36.3664 22.6167 36.3664 25.0429C36.3664 27.4732 36.3708 27.5341 36.5655 27.8307C36.6156 27.9071 37.0986 28.5206 37.6388 29.194C38.179 29.8673 38.6603 30.4838 38.7083 30.5638C38.7844 30.6904 38.7957 30.7502 38.7955 31.025C38.7954 31.2368 38.7749 31.3999 38.7331 31.5203C38.6543 31.7475 37.6156 33.5877 37.4908 33.7211C37.4395 33.7759 37.3351 33.853 37.2588 33.8924C36.9952 34.0284 36.8205 34.0158 34.9683 33.7273C33.1163 33.4389 32.984 33.4296 32.6762 33.5663C32.3676 33.7033 28.9348 35.7968 28.7787 35.9432C28.6907 36.0257 28.5784 36.1686 28.5291 36.2607C28.4799 36.3529 28.1753 37.0662 27.8523 37.8459C27.386 38.9718 27.2286 39.3148 27.0878 39.5125C26.8981 39.7787 26.6626 39.9642 26.4367 40.0253C26.3499 40.0487 25.8344 40.0585 25.0155 40.0521C23.7427 40.0422 23.729 40.0413 23.5617 39.9586C23.3499 39.854 23.0179 39.5481 22.8801 39.3306C22.8224 39.2395 22.5134 38.5334 22.1935 37.7615C21.8736 36.9896 21.5746 36.294 21.529 36.2157C21.4833 36.1374 21.3778 36.0102 21.2943 35.933C21.1429 35.7929 17.6974 33.6954 17.4065 33.5663C17.1005 33.4304 16.9595 33.4398 15.2368 33.7111C13.3034 34.0156 13.2414 34.0214 12.9745 33.9206C12.6262 33.7892 12.5127 33.6478 11.9321 32.6214C11.3511 31.5944 11.2486 31.3417 11.2785 31.0107C11.2884 30.9008 11.3317 30.7289 11.3746 30.6288C11.4242 30.5129 11.8258 29.978 12.4795 29.157C13.0443 28.4477 13.5376 27.8008 13.5759 27.7196C13.6141 27.6384 13.6609 27.5042 13.6799 27.4214C13.7264 27.2193 13.7264 22.8664 13.6799 22.6644C13.6609 22.5815 13.6142 22.4473 13.5761 22.3662C13.5381 22.2849 13.0468 21.6444 12.4843 20.9428C11.9219 20.2412 11.4224 19.6017 11.3743 19.5218C11.2983 19.3953 11.287 19.3356 11.2871 19.0608C11.2873 18.849 11.3078 18.6859 11.3496 18.5655C11.4284 18.3383 12.4671 16.4981 12.5919 16.3647C12.6431 16.3099 12.748 16.2325 12.8249 16.1928C13.0906 16.0555 13.2853 16.0695 15.1494 16.3597C16.995 16.647 17.1024 16.6545 17.4093 16.5183C17.6982 16.39 21.1437 14.2921 21.2943 14.1528C21.3778 14.0756 21.4833 13.9484 21.5289 13.8701C21.5745 13.7918 21.8805 13.0804 22.209 12.2892C22.5374 11.498 22.8599 10.7693 22.9257 10.6698C23.1651 10.3078 23.3499 10.1503 23.6432 10.0584ZM22.5596 18.2214C22.5116 18.23 22.3779 18.2539 22.2625 18.2745C21.6156 18.3901 20.8841 18.792 20.4075 19.2936C19.9817 19.7418 19.6894 20.2624 19.5239 20.8673L19.4326 21.201L19.4214 24.7973C19.4101 28.4267 19.4175 28.7026 19.5373 29.1643C19.7765 30.0863 20.4821 30.9553 21.3537 31.4014C22.3082 31.8899 23.5571 31.9007 24.4827 31.4285C25.0222 31.1533 30.764 27.8803 30.9536 27.7399C31.2091 27.5507 31.5803 27.1715 31.7434 26.9329C32.0006 26.5568 32.2341 25.9845 32.314 25.5341C32.375 25.1902 32.3663 24.5464 32.296 24.2053C32.105 23.2785 31.5748 22.4804 30.8179 21.9807C30.5875 21.8285 25.2868 18.9704 24.548 18.6C24.0476 18.349 23.609 18.2362 23.0664 18.219C22.8358 18.2117 22.6077 18.2128 22.5596 18.2214ZM22.7771 20.7314C22.9647 20.6966 23.1288 20.7176 23.3225 20.801C23.5769 20.9105 29.3671 24.0268 29.512 24.1322C29.7947 24.3377 29.9308 24.8327 29.8148 25.2333C29.7071 25.6053 29.7297 25.5905 26.3648 27.4894C24.1458 28.7416 23.2545 29.2273 23.124 29.2554C22.6795 29.351 22.162 29.0648 22.0016 28.6346C21.9318 28.4472 21.9304 28.3785 21.9304 24.9952C21.9304 21.1803 21.9197 21.3667 22.1557 21.0899C22.2935 20.9284 22.5677 20.7702 22.7771 20.7314Z" fill="#284195"/>
</svg>
