<svg width="51" height="51" viewBox="0 0 51 51" fill="none" xmlns="http://www.w3.org/2000/svg">
<path d="M38.8114 33.9282C39.5029 33.9282 40.0634 34.4888 40.0634 35.1802C40.0628 35.8712 39.5025 36.4322 38.8114 36.4322H38.0974V40.0635H38.8114C39.5028 40.0635 40.0633 40.6241 40.0634 41.3155C40.0634 42.0069 39.5029 42.5675 38.8114 42.5675H11.2676C10.5762 42.5675 10.0156 42.0069 10.0156 41.3155C10.0157 40.6241 10.5762 40.0635 11.2676 40.0635H11.9841V36.4322H11.2676C10.5765 36.4322 10.0162 35.8712 10.0156 35.1802C10.0156 34.4888 10.5762 33.9282 11.2676 33.9282H38.8114ZM30.226 40.0635H35.5934V36.4322H30.226V40.0635ZM22.357 40.0635H27.722V36.4322H22.357V40.0635ZM14.4881 40.0635H19.853V36.4322H14.4881V40.0635ZM36.437 21.9781C36.437 21.7088 36.3325 21.4605 36.1656 21.2861C36.0008 21.1142 35.7894 21.0272 35.5812 21.0269H26.2915V28.5853C26.2915 28.8541 26.3956 29.1024 26.5629 29.2773C26.7279 29.4493 26.9389 29.5363 27.1474 29.5365H35.5812C35.7896 29.5362 36.0008 29.4494 36.1656 29.2773C36.3326 29.1028 36.437 28.8546 36.437 28.5853V21.9781ZM13.6444 28.5853C13.6444 28.8545 13.7465 29.1028 13.9134 29.2773C14.0786 29.4499 14.2914 29.5365 14.5003 29.5365H22.9317C23.1405 29.5365 23.3534 29.4499 23.5185 29.2773C23.6853 29.1028 23.7875 28.8544 23.7875 28.5853V21.0269H14.5003C14.2915 21.0269 14.0786 21.1136 13.9134 21.2861C13.7465 21.4605 13.6445 21.7088 13.6444 21.9781V28.5853ZM30.1111 10.9669C30.1111 10.6978 30.0088 10.4493 29.8421 10.2749C29.6769 10.1023 29.4641 10.0157 29.2552 10.0157H20.8238C20.6149 10.0157 20.4021 10.1023 20.237 10.2749C20.0703 10.4493 19.968 10.6978 19.968 10.9669V18.5229H30.1111V10.9669ZM32.615 18.5229H35.5812C36.4899 18.5232 37.3499 18.9017 37.9751 19.5548C38.5987 20.2063 38.9409 21.0793 38.941 21.9781V28.5853C38.941 29.4841 38.5987 30.3569 37.9751 31.0085C37.3499 31.6618 36.49 32.0401 35.5812 32.0405H27.1474C26.3697 32.0403 25.6292 31.7616 25.0395 31.2726C24.4497 31.7616 23.7094 32.0405 22.9317 32.0405H14.5003C13.591 32.0405 12.7294 31.662 12.1039 31.0085C11.4805 30.357 11.1405 29.4839 11.1405 28.5853V21.9781C11.1405 21.0793 11.4804 20.2063 12.1039 19.5548C12.7294 18.9013 13.591 18.5229 14.5003 18.5229H17.464V10.9669C17.464 10.0684 17.8043 9.19516 18.4274 8.54363C19.0529 7.89015 19.9146 7.51172 20.8238 7.51172H29.2552C30.1645 7.51172 31.0261 7.89015 31.6516 8.54363C32.2748 9.19517 32.615 10.0684 32.615 10.9669V18.5229Z" fill="#284195"/>
</svg>
