<svg width="51" height="51" viewBox="0 0 51 51" fill="none" xmlns="http://www.w3.org/2000/svg">
<path fill-rule="evenodd" clip-rule="evenodd" d="M8.41621 7.55899C8.07715 7.66623 7.78075 7.92533 7.63029 8.24605L7.53981 8.43893V14.0844L7.65504 14.3184C7.78257 14.5775 7.99091 14.785 8.25278 14.9137C8.37449 14.9735 8.49224 14.997 8.71418 15.0059C9.10722 15.0217 9.35423 14.9334 9.61981 14.6822C9.97499 14.3463 10.0444 14.0899 10.0456 13.1101L10.0463 12.5229H30.0584L30.0807 14.118L30.1844 14.3227C30.3169 14.5843 30.5987 14.844 30.8533 14.9393C31.1196 15.0389 31.4991 15.0376 31.7708 14.9361C32.0517 14.8311 32.3716 14.5108 32.4768 14.2292C32.5529 14.0256 32.5532 14.0139 32.5532 11.2689C32.5532 8.21699 32.5629 8.35406 32.323 8.02695C31.8689 7.40815 30.9727 7.33464 30.4352 7.87218C30.3486 7.95877 30.2334 8.11386 30.1792 8.21674C30.0808 8.4037 30.0807 8.40461 30.0695 9.20139L30.0584 9.99891H10.0549L10.0383 9.25397C10.0237 8.59938 10.0125 8.48534 9.94607 8.31346C9.81283 7.96886 9.46889 7.65424 9.11325 7.5516C8.92897 7.49842 8.5966 7.50192 8.41621 7.55899ZM13.4292 17.5375C10.3776 17.5584 10.5269 17.5487 9.95484 17.7639C8.71797 18.2291 7.80298 19.3358 7.57518 20.6421C7.4975 21.0876 7.49498 38.9945 7.57252 39.4282C7.85949 41.0333 9.05471 42.2285 10.6598 42.5154C11.0935 42.593 29.0004 42.5905 29.4458 42.5128C30.9827 42.2448 32.2125 41.0354 32.498 39.5113C32.5472 39.2486 32.552 38.2437 32.543 29.9106L32.533 20.6033L32.4586 20.3579C32.1841 19.4526 31.755 18.811 31.0707 18.2831C30.8516 18.114 30.3814 17.8526 30.1318 17.7611C29.6883 17.5985 29.4891 17.5648 28.8712 17.5483C27.9484 17.5235 16.6333 17.5156 13.4292 17.5375ZM37.3722 17.5359L35.97 17.5534L35.7705 17.6514C35.6516 17.7098 35.5004 17.8266 35.3962 17.9407C35.1698 18.1884 35.0761 18.4341 35.0761 18.7804C35.0761 19.1237 35.17 19.3726 35.3909 19.6142C35.4881 19.7206 35.6479 19.8441 35.7653 19.9036L35.97 20.0073L37.5651 20.0296V40.0417L36.9603 40.042C35.9977 40.0424 35.7422 40.1124 35.4058 40.4682C35.1546 40.7337 35.0663 40.9807 35.0821 41.3738C35.0909 41.5957 35.1145 41.7135 35.1743 41.8352C35.303 42.0971 35.5105 42.3054 35.7696 42.4329L36.0036 42.5482H41.649L41.8419 42.4577C42.2536 42.2645 42.5381 41.8529 42.5702 41.4038C42.5995 40.9948 42.4403 40.6199 42.1211 40.3468C41.8397 40.1059 41.6773 40.0685 40.834 40.0497L40.0891 40.0331V20.0296L40.8866 20.0185C41.6834 20.0073 41.6843 20.0072 41.8712 19.9088C42.7225 19.4604 42.8231 18.3241 42.061 17.765C41.7583 17.5429 41.7271 17.539 40.1767 17.5282C39.4055 17.5228 38.1435 17.5263 37.3722 17.5359ZM11.0554 20.061C11.1463 20.0456 12.076 20.0312 13.1214 20.029L15.0221 20.0248L15.0417 26.5978L15.1365 26.8001C15.2476 27.037 15.5045 27.3001 15.7378 27.4159C15.8286 27.4609 16.0107 27.5127 16.1425 27.531C16.2851 27.5508 17.9347 27.5602 20.2166 27.5543L24.0511 27.5443L24.2466 27.4651C24.5951 27.3242 24.9065 26.9823 25.0085 26.6288C25.0393 26.522 25.0502 25.6436 25.0502 23.2528V20.0212L29.064 20.0428L29.2696 20.1255C29.5479 20.2374 29.8504 20.5398 29.9627 20.8183L30.0456 21.0239L30.0553 29.893C30.0613 35.4461 30.0524 38.8442 30.0313 38.9816C29.9675 39.3969 29.7004 39.7579 29.327 39.9335L29.1341 40.0241L11.0315 40.0421L10.8281 39.967C10.5464 39.8631 10.2249 39.5416 10.121 39.2598L10.0459 39.0564L10.0638 20.9538L10.1543 20.7609C10.3206 20.4064 10.685 20.1234 11.0554 20.061ZM17.5482 20.0248H22.5261V25.0378H17.5482V20.0248Z" fill="#284195"/>
</svg>
