<svg width="51" height="51" viewBox="0 0 51 51" fill="none" xmlns="http://www.w3.org/2000/svg">
<path d="M24.7959 12.5195C25.2257 12.5184 25.6531 12.6138 26.043 12.7983C26.4343 12.9837 26.7807 13.2567 27.0505 13.6004L27.0529 13.6028L30.9972 18.6646H37.2645C37.9253 18.6414 38.5853 18.742 39.2085 18.9604C39.8498 19.1852 40.4409 19.5314 40.9446 19.9826C41.4487 20.4341 41.8571 20.9817 42.1379 21.594C42.4188 22.2065 42.5663 22.8703 42.5708 23.5429V23.56C42.5661 24.2195 42.4208 24.8694 42.1453 25.4698C41.8694 26.0706 41.4688 26.6092 40.974 27.0519C40.4795 27.4942 39.8988 27.8346 39.2696 28.0545C38.659 28.2678 38.0119 28.3614 37.3647 28.3381L30.7233 28.3406L23.654 36.5763L23.6442 36.5861C23.3756 36.8917 23.0438 37.1342 22.6759 37.3001C22.3077 37.4661 21.9072 37.5548 21.5046 37.5593H18.4602C17.9948 37.5654 17.5323 37.4598 17.1153 37.2488C16.6891 37.0331 16.3199 36.711 16.0515 36.3098C15.7833 35.9082 15.6267 35.4409 15.6016 34.9551C15.5829 34.5907 15.6401 34.2296 15.7655 33.8914L15.9122 33.5613L18.5971 28.3797H14.7629C13.9163 28.377 13.0839 28.1401 12.3689 27.6901C11.6535 27.2399 11.0824 26.594 10.7379 25.8244L7.75956 19.4642L7.75222 19.447C7.56254 19.0244 7.48387 18.5602 7.52725 18.0972C7.57068 17.6346 7.73225 17.1932 7.99431 16.8135C8.2562 16.4342 8.60893 16.1288 9.01399 15.9185C9.41874 15.7084 9.86807 15.5983 10.3222 15.5933H10.3785L13.6821 15.7033L13.8483 15.718C14.2276 15.7816 14.5613 16.0191 14.7458 16.3635L15.9782 18.6646H20.3479L19.228 16.5225C19.0036 16.0952 18.8969 15.618 18.9223 15.1336C18.9479 14.6487 19.1054 14.1829 19.3723 13.7813C19.6387 13.3804 20.0049 13.0578 20.4286 12.8399C20.8472 12.6248 21.3123 12.5183 21.7809 12.522L24.7959 12.5195ZM10.3491 18.0972C10.2824 18.0981 10.2202 18.1142 10.1682 18.1413C10.1162 18.1682 10.079 18.2029 10.0557 18.2366C10.0329 18.2698 10.0217 18.3034 10.019 18.332C10.0166 18.3602 10.0222 18.3914 10.0361 18.4225L13.0145 24.7802L13.0243 24.7998C13.1602 25.103 13.392 25.375 13.7016 25.5701C14.0126 25.7658 14.3848 25.8744 14.7702 25.8757H20.6536C21.0905 25.8757 21.4975 26.104 21.7246 26.4773C21.9518 26.8507 21.9673 27.3167 21.7662 27.7048L18.13 34.7252L18.1227 34.7375C18.1062 34.7686 18.0995 34.7985 18.1007 34.8255C18.1021 34.853 18.113 34.8856 18.1349 34.9184C18.1571 34.9516 18.1926 34.987 18.245 35.0138C18.2981 35.0407 18.3632 35.0567 18.4308 35.0554H21.4777C21.5383 35.0546 21.5962 35.0413 21.6464 35.0187C21.6966 34.996 21.7361 34.9646 21.7638 34.9331L29.1999 26.2719L29.398 26.086C29.6126 25.925 29.8756 25.8368 30.1487 25.8366H37.6851C37.9445 25.824 38.2002 25.7747 38.4431 25.6899C38.7669 25.5767 39.0599 25.4041 39.3039 25.1862C39.5479 24.9678 39.7393 24.7074 39.8687 24.4257C39.9957 24.149 40.0626 23.8543 40.0668 23.5576C40.0645 23.2435 39.9956 22.9309 39.8614 22.6382C39.7268 22.3448 39.528 22.0755 39.2745 21.8483C39.0207 21.621 38.7163 21.4406 38.3795 21.3226C38.1272 21.2342 37.8617 21.1819 37.5921 21.1685H30.5546C30.4427 21.1829 30.3306 21.1843 30.2196 21.1685H15.2275C14.7662 21.1682 14.3425 20.9149 14.1247 20.5083L12.8776 18.1804L10.3467 18.0948L10.3491 18.0972ZM21.7638 15.0235C21.6937 15.0226 21.6278 15.0393 21.573 15.0675C21.5185 15.0956 21.4814 15.1327 21.4581 15.1678C21.4352 15.2023 21.4254 15.236 21.4239 15.2656L21.4459 15.361L23.1722 18.6646H27.8207L25.082 15.1458L24.972 15.0602C24.9223 15.0367 24.8624 15.0232 24.8008 15.0235H21.7638Z" fill="#284195"/>
</svg>
