<svg width="51" height="51" viewBox="0 0 51 51" fill="none" xmlns="http://www.w3.org/2000/svg">
<path d="M7.51562 25.0396C7.51562 15.3592 15.3631 7.51172 25.0435 7.51172C31.4212 7.51172 37.0012 10.9177 40.0674 16.0067V10.0157C40.0674 9.32424 40.6279 8.76371 41.3194 8.76371C42.0108 8.76371 42.5714 9.32424 42.5714 10.0157V18.7796C42.5714 19.4711 42.0108 20.0316 41.3194 20.0316H32.5554C31.864 20.0316 31.3034 19.4711 31.3034 18.7796C31.3034 18.0882 31.864 17.5276 32.5554 17.5276H38.0549C35.4561 13.0362 30.6023 10.0157 25.0435 10.0157C16.746 10.0157 10.0196 16.7421 10.0196 25.0396C10.0196 33.3372 16.746 40.0635 25.0435 40.0635C32.5537 40.0635 38.7794 34.5518 39.8913 27.3528C39.9969 26.6695 40.636 26.2007 41.3194 26.3062C42.0025 26.4119 42.4712 27.0512 42.366 27.7343C41.0685 36.1355 33.8081 42.5675 25.0435 42.5675C15.3631 42.5675 7.51562 34.7201 7.51562 25.0396Z" fill="#284195"/>
</svg>
