<svg width="51" height="51" viewBox="0 0 51 51" fill="none" xmlns="http://www.w3.org/2000/svg">
<path d="M40.0527 36.9677C39.9886 36.323 39.7055 35.7157 39.2433 35.2536C38.7812 34.7914 38.1739 34.5083 37.5292 34.4442L37.2504 34.4295C36.5033 34.4295 35.7858 34.7253 35.2575 35.2536C34.7292 35.7819 34.4334 36.4994 34.4334 37.2465L34.4481 37.5253C34.5122 38.17 34.7953 38.7773 35.2575 39.2394C35.7858 39.7677 36.5033 40.0635 37.2504 40.0635L37.5292 40.0488C38.1739 39.9847 38.7812 39.7016 39.2433 39.2394C39.7716 38.7111 40.0674 37.9936 40.0674 37.2465L40.0527 36.9677ZM15.6536 12.8327C15.6536 12.0856 15.3578 11.368 14.8295 10.8398C14.3674 10.3776 13.7601 10.0945 13.1153 10.0304L12.8366 10.0157C12.0895 10.0157 11.372 10.3115 10.8437 10.8398C10.3154 11.3681 10.0196 12.0856 10.0196 12.8327L10.0343 13.1114C10.0984 13.7562 10.3815 14.3634 10.8437 14.8256C11.372 15.3539 12.0895 15.6497 12.8366 15.6497C13.5837 15.6497 14.3012 15.3539 14.8295 14.8256C15.3578 14.2973 15.6536 13.5798 15.6536 12.8327ZM18.1575 12.8327C18.1575 14.2439 17.5978 15.5981 16.5999 16.596C15.9032 17.2927 15.0306 17.7687 14.0886 17.9971V35.212C14.0886 37.8913 16.2607 40.0635 18.94 40.0635C21.6194 40.0635 23.7915 37.8913 23.7915 35.212V14.8672C23.7915 10.8049 27.0846 7.51172 31.1469 7.51172C35.2091 7.51172 38.5024 10.8049 38.5024 14.8672V32.0796C39.4447 32.3079 40.3168 32.7863 41.0137 33.4832C42.0116 34.4811 42.5714 35.8353 42.5714 37.2465L42.5445 37.7722C42.4235 38.9904 41.8869 40.1366 41.0137 41.0098C40.1405 41.883 38.9943 42.4196 37.7761 42.5406L37.2504 42.5675C35.8392 42.5675 34.485 42.0077 33.4871 41.0098C32.6139 40.1366 32.0773 38.9904 31.9563 37.7722L31.9294 37.2465C31.9294 35.8353 32.4892 34.4811 33.4871 33.4832C34.184 32.7863 35.0561 32.3079 35.9984 32.0796V14.8672C35.9984 12.1878 33.8262 10.0157 31.1469 10.0157C28.4676 10.0157 26.2955 12.1878 26.2955 14.8672V35.212C26.2955 39.2742 23.0024 42.5675 18.94 42.5675C14.8777 42.5675 11.5846 39.2742 11.5846 35.212V17.9971C10.6425 17.7687 9.77002 17.2927 9.07328 16.596C8.20012 15.7228 7.66345 14.5765 7.54252 13.3584L7.51562 12.8327C7.51563 11.4215 8.0754 10.0672 9.07328 9.06937C10.0712 8.0715 11.4254 7.51172 12.8366 7.51172L13.3623 7.53862C14.5804 7.65955 15.7267 8.19621 16.5999 9.06937C17.5978 10.0672 18.1575 11.4215 18.1575 12.8327Z" fill="#284195"/>
</svg>
