<svg width="51" height="51" viewBox="0 0 51 51" fill="none" xmlns="http://www.w3.org/2000/svg">
<path d="M20.2448 7.55081C19.6508 7.62628 19.0844 7.83776 18.5567 8.18121C18.2801 8.36117 17.5467 9.07755 13.4041 13.2137C10.2366 16.3764 8.49031 18.1472 8.33064 18.3584C7.90577 18.9204 7.64659 19.5647 7.55957 20.2749C7.50278 20.7383 7.50016 38.5748 7.5568 39.0382C7.61621 39.5242 7.72565 39.8852 7.95368 40.3475C8.54782 41.5518 9.69642 42.3616 11.0445 42.5265C11.4917 42.5811 38.5955 42.5811 39.0427 42.5265C39.5286 42.467 39.8896 42.3576 40.3518 42.1295C41.5559 41.5353 42.3655 40.3865 42.5304 39.0382C42.585 38.5909 42.585 11.4824 42.5304 11.0351C42.471 10.5491 42.3615 10.188 42.1335 9.72575C41.5393 8.5214 40.3907 7.71165 39.0427 7.54679C38.6396 7.4975 20.6341 7.50137 20.2448 7.55081ZM22.236 10.0496H33.2759L33.2566 16.974H22.2553L22.236 10.0496ZM35.7786 13.6446L35.7793 10.0496H37.3003C39.0126 10.0496 39.0841 10.0585 39.4243 10.3141C39.5308 10.3942 39.6835 10.5469 39.7635 10.6534C40.0529 11.0387 40.028 9.68341 40.0276 25.0425C40.0272 36.8434 40.0194 38.8541 39.9733 39.0061C39.8832 39.3029 39.7033 39.5478 39.4157 39.765C39.0858 40.014 39.0069 40.0237 37.3003 40.0237H35.7793L35.7786 35.0817C35.7778 29.5624 35.7919 29.8626 35.508 29.2861C35.3791 29.0242 35.2845 28.8992 35.0047 28.6209C34.6376 28.2558 34.3316 28.065 33.9015 27.9331C33.6833 27.8662 33.3154 27.8633 25.0436 27.8633C16.7718 27.8633 16.4039 27.8662 16.1857 27.9331C15.7556 28.065 15.4496 28.2558 15.0825 28.6209C14.8027 28.8992 14.7081 29.0242 14.5791 29.2861C14.2953 29.8626 14.3093 29.5624 14.3086 35.0817L14.3079 40.0237H12.7869C11.0746 40.0237 11.003 40.0147 10.6629 39.7591C10.5563 39.6791 10.4037 39.5264 10.3236 39.4198C10.0356 39.0364 10.0574 39.8769 10.0683 29.5828L10.0781 20.3508L10.1842 20.1231C10.2799 19.9177 10.7517 19.4337 15.0113 15.1717L19.7323 10.448L19.7325 13.8662C19.7326 17.1517 19.7356 17.2958 19.808 17.5789C19.9245 18.0347 20.1199 18.3665 20.4914 18.7397C20.7325 18.9819 20.8903 19.103 21.1173 19.2201C21.7395 19.5412 21.1791 19.5161 27.718 19.5161C32.4143 19.5161 33.5655 19.5064 33.7497 19.4655C34.4798 19.3033 35.2009 18.7238 35.5366 18.0293C35.7832 17.5191 35.7778 17.6164 35.7786 13.6446ZM16.8572 30.394C16.9234 30.3277 33.1637 30.3277 33.23 30.394C33.2649 30.429 33.2755 31.555 33.2755 35.2316V40.0237H16.8116V35.2316C16.8116 31.555 16.8222 30.429 16.8572 30.394Z" fill="#284195"/>
</svg>
