<svg width="51" height="51" viewBox="0 0 51 51" fill="none" xmlns="http://www.w3.org/2000/svg">
<path d="M35.0516 22.5356C35.0516 15.621 29.4463 10.0157 22.5317 10.0157C15.6171 10.0157 10.0118 15.621 10.0118 22.5356C10.0118 29.4502 15.6171 35.0555 22.5317 35.0555C29.4463 35.0555 35.0516 29.4502 35.0516 22.5356ZM37.5556 22.5356C37.5556 26.2328 36.2151 29.6139 34.0001 32.2312L42.1968 40.4303L42.3581 40.6259C42.6791 41.1119 42.6246 41.7728 42.1968 42.2007C41.7078 42.6895 40.9153 42.6896 40.4264 42.2007L32.2297 34.004C29.6123 36.2197 26.2296 37.5595 22.5317 37.5595C14.2342 37.5595 7.50781 30.8331 7.50781 22.5356C7.50781 14.2381 14.2342 7.51172 22.5317 7.51172C30.8292 7.51172 37.5556 14.2381 37.5556 22.5356Z" fill="#284195"/>
</svg>
