<svg width="51" height="51" viewBox="0 0 51 51" fill="none" xmlns="http://www.w3.org/2000/svg">
<path d="M26.078 7.51172L26.3592 7.52395C26.9235 7.56783 27.4712 7.73662 27.9609 8.02034L28.2005 8.17195L28.4279 8.34067C28.9428 8.75321 29.3422 9.29472 29.5821 9.913L30.5015 12.2776L33.4163 13.9453L35.9545 13.5614L35.9765 13.5565C36.7154 13.4569 37.4679 13.5794 38.1382 13.9062C38.8085 14.2329 39.3672 14.7507 39.7423 15.3953L39.7472 15.4027L40.7449 17.1413L40.8818 17.3907C41.133 17.9004 41.263 18.4609 41.2657 19.0291L41.2584 19.3127C41.2045 20.0725 40.9195 20.7977 40.4441 21.3912L38.8816 23.367V26.6999L40.4881 28.6831L40.493 28.688C40.9683 29.2815 41.2534 30.0067 41.3073 30.7665L41.3171 31.0501C41.314 31.7077 41.135 32.3529 40.8011 32.9232L39.7961 34.6765L39.7937 34.6838C39.4186 35.3285 38.8595 35.8461 38.1895 36.173H38.1871C37.5171 36.4994 36.7648 36.6226 36.0255 36.5227L36.0059 36.5178L33.4652 36.1314L30.5529 37.7967L29.631 40.1662C29.357 40.872 28.8767 41.4792 28.2519 41.9072H28.2494C27.6241 42.335 26.8843 42.5652 26.1269 42.5675H24.0044C23.2471 42.565 22.5071 42.3352 21.8819 41.9072C21.3345 41.5325 20.8971 41.0208 20.6128 40.4254L20.5003 40.1662L19.5784 37.7991L16.6661 36.1314L14.1278 36.5178L14.1058 36.5227C13.3667 36.6223 12.614 36.4993 11.9442 36.173C11.2741 35.8461 10.7153 35.3285 10.3401 34.6838L10.3352 34.6765L9.33018 32.9257L9.33263 32.9232C8.95072 32.2711 8.77033 31.5207 8.824 30.7665C8.87804 30.0072 9.16243 29.2819 9.63829 28.688L11.2008 26.7097V23.3768L9.59427 21.3961L9.58938 21.3912C9.11353 20.7972 8.82913 20.072 8.7751 19.3127C8.72106 18.5536 8.89911 17.7964 9.28617 17.1413L10.2863 15.4027L10.2887 15.3953C10.664 14.7504 11.2247 14.233 11.8953 13.9062C12.4816 13.6205 13.1302 13.4905 13.7782 13.5296L14.0569 13.5565L14.0765 13.5614L16.6172 13.9453L19.5809 12.2727L20.5003 9.913L20.6128 9.6538C20.8972 9.05819 21.3346 8.54664 21.8819 8.17195C22.507 7.74406 23.247 7.51415 24.0044 7.51172H26.078ZM23.8234 10.0304C23.635 10.0592 23.4555 10.1304 23.2977 10.2382C23.1403 10.3459 23.0095 10.4866 22.9162 10.649L22.8355 10.8202L21.7523 13.6005C21.6474 13.8696 21.4511 14.0943 21.1996 14.2363L17.4755 16.3392C17.2317 16.4768 16.9477 16.5279 16.671 16.4859L13.7146 16.036C13.4668 16.004 13.2146 16.0468 12.9908 16.1558C12.7671 16.2649 12.58 16.4357 12.4553 16.6473L11.4503 18.4006L11.4429 18.4153C11.3142 18.633 11.2541 18.8835 11.2717 19.1342C11.2896 19.385 11.3847 19.6257 11.5432 19.8238L13.426 22.1468C13.6069 22.3698 13.7048 22.6495 13.7048 22.9366V27.1425C13.7048 27.424 13.6102 27.6968 13.4358 27.9177L11.5994 30.2481L11.5945 30.2554C11.4358 30.4535 11.341 30.6939 11.3231 30.945C11.3054 31.1955 11.3634 31.4463 11.4918 31.6639L11.5016 31.6786L12.5042 33.4245L12.6093 33.5761C12.7252 33.7209 12.8724 33.8405 13.0421 33.9233C13.2658 34.032 13.5167 34.0725 13.7635 34.0407L16.7223 33.5932L16.9326 33.5786C17.1417 33.5823 17.3482 33.6375 17.5317 33.7424L21.207 35.8478L21.383 35.9676C21.5468 36.1028 21.6743 36.2787 21.7523 36.4787L22.8355 39.259L22.9162 39.4301C23.0096 39.5926 23.1404 39.7333 23.2977 39.841C23.5073 39.9842 23.7558 40.0625 24.0117 40.0635H26.1196C26.3761 40.0627 26.626 39.9847 26.836 39.841C27.046 39.6972 27.2072 39.4935 27.2982 39.259L28.3815 36.4787L28.4744 36.2879C28.584 36.1058 28.7402 35.9545 28.9268 35.8478L32.602 33.7424L32.7928 33.6544C32.9892 33.5825 33.2024 33.5615 33.4114 33.5932L36.3678 34.0407C36.6155 34.0729 36.8676 34.0325 37.0916 33.9233C37.3158 33.814 37.5 33.6411 37.6247 33.4294L38.6321 31.6786L38.6395 31.6639C38.7681 31.4463 38.8284 31.1958 38.8106 30.945V30.9425C38.7928 30.6928 38.6976 30.4535 38.5392 30.2554V30.253L36.6563 27.9324C36.4755 27.7094 36.3776 27.4296 36.3776 27.1425V22.9366C36.3776 22.6552 36.4722 22.3824 36.6466 22.1615L38.483 19.8311L38.4879 19.8238C38.6465 19.6256 38.7414 19.3865 38.7593 19.1366C38.7772 18.8858 38.7191 18.633 38.5906 18.4153L38.5808 18.4006L37.5782 16.6547C37.4535 16.4403 37.2661 16.2659 37.0403 16.1558C36.8166 16.0469 36.5644 16.0037 36.3164 16.036L33.3601 16.4859C33.0811 16.5282 32.7957 16.4768 32.5507 16.3368L28.8754 14.2314C28.6271 14.0892 28.434 13.8671 28.3301 13.6005L27.2469 10.8202C27.1559 10.5858 26.9948 10.382 26.7847 10.2382V10.2358C26.6278 10.1288 26.4485 10.0593 26.2614 10.0304L26.0707 10.0157H24.0117L23.8234 10.0304ZM25.0412 18.7796C26.2789 18.7796 27.4892 19.1461 28.5184 19.8336C29.5476 20.5213 30.3505 21.4997 30.8243 22.6432C31.2979 23.7867 31.4226 25.0458 31.1813 26.2598C30.9398 27.4741 30.3427 28.5901 29.4672 29.4656C28.5917 30.3411 27.4757 30.9382 26.2614 31.1797C25.0474 31.421 23.7883 31.2963 22.6448 30.8227C21.5013 30.3489 20.5229 29.546 19.8352 28.5168C19.1477 27.4876 18.7812 26.2773 18.7812 25.0396C18.7812 23.3794 19.4412 21.7876 20.6152 20.6136C21.7892 19.4396 23.381 18.7796 25.0412 18.7796ZM21.2852 25.0396C21.2852 25.7823 21.506 26.5078 21.9186 27.1254C22.3312 27.7429 22.9172 28.2251 23.6034 28.5095C24.2897 28.7937 25.0462 28.8671 25.7748 28.7222C26.503 28.5771 27.1718 28.2202 27.6968 27.6952C28.2218 27.1702 28.5788 26.5014 28.7238 25.7732C28.8687 25.0446 28.7953 24.2881 28.5111 23.6018C28.2267 22.9156 27.7445 22.3295 27.127 21.9169C26.5095 21.5044 25.7839 21.2836 25.0412 21.2836C24.0451 21.2836 23.09 21.6796 22.3856 22.384C21.6812 23.0884 21.2852 24.0434 21.2852 25.0396Z" fill="#284195"/>
</svg>
