<svg width="51" height="51" viewBox="0 0 51 51" fill="none" xmlns="http://www.w3.org/2000/svg">
<path d="M23.7875 28.8542V11.5929L20.3739 14.6984L20.1685 14.85C19.6679 15.1467 19.0102 15.0602 18.6035 14.6128C18.1393 14.1011 18.1778 13.3097 18.6891 12.8448L24.1983 7.83688L24.3866 7.69505C24.8524 7.40995 25.4627 7.45748 25.8807 7.83688L31.3899 12.8448C31.9013 13.3097 31.9397 14.1011 31.4755 14.6128C31.0688 15.0602 30.4111 15.1467 29.9105 14.85L29.7051 14.6984L26.2915 11.5929V28.8542C26.2915 29.5457 25.731 30.1062 25.0395 30.1062C24.3481 30.1062 23.7875 29.5457 23.7875 28.8542ZM40.0634 40.0634C40.0634 40.7681 39.755 41.4172 39.2516 41.8754C38.7517 42.3292 38.0953 42.5673 37.4347 42.5674H12.6443C11.9837 42.5673 11.3297 42.3293 10.8299 41.8754C10.3262 41.417 10.0156 40.7678 10.0156 40.0634V20.0316C10.0156 19.3269 10.3257 18.678 10.8299 18.2196C11.3299 17.7654 11.984 17.5277 12.6443 17.5276H16.7769L17.0287 17.552C17.5993 17.6688 18.0289 18.1745 18.0289 18.7796C18.0289 19.3846 17.5993 19.8904 17.0287 20.0071L16.7769 20.0316H12.6443C12.5821 20.0317 12.5395 20.0532 12.5196 20.0682V40.0243C12.5393 40.0395 12.5812 40.0633 12.6443 40.0634H37.4347C37.4975 40.0633 37.5394 40.0396 37.5594 40.0243V20.0682C37.5392 20.0531 37.4966 20.0317 37.4347 20.0316H33.3022C32.6109 20.0314 32.0502 19.4709 32.0502 18.7796C32.0502 18.0882 32.6109 17.5278 33.3022 17.5276H37.4347C38.0951 17.5277 38.7491 17.7655 39.2491 18.2196C39.7526 18.6778 40.0634 19.3269 40.0634 20.0316V40.0634Z" fill="#284195"/>
</svg>
