<svg width="51" height="51" viewBox="0 0 51 51" fill="none" xmlns="http://www.w3.org/2000/svg">
<path d="M40.0674 25.0394C40.0674 24.6194 39.9292 24.2338 39.7079 23.9513L39.192 23.3375C37.9001 21.8429 36.0239 19.9114 33.7634 18.2831C31.1699 16.4149 28.1764 15.0235 25.0435 15.0235C21.9105 15.0235 18.9171 16.4149 16.3236 18.2831C13.7401 20.1441 11.6603 22.403 10.3791 23.9513C10.1578 24.2337 10.0196 24.6193 10.0196 25.0394C10.0196 25.4596 10.1578 25.8452 10.3791 26.1276L10.895 26.7414C12.1868 28.236 14.0631 30.1674 16.3236 31.7958C18.9171 33.6639 21.9105 35.0554 25.0435 35.0554C28.1764 35.0554 31.1699 33.6639 33.7634 31.7958C36.347 29.9347 38.4267 27.6759 39.7079 26.1276C39.9292 25.8451 40.0674 25.4595 40.0674 25.0394ZM28.7995 25.0394C28.7995 22.9651 27.1179 21.2835 25.0435 21.2835C22.9691 21.2835 21.2875 22.9651 21.2875 25.0394C21.2875 27.1138 22.9691 28.7954 25.0435 28.7954C27.1179 28.7954 28.7995 27.1138 28.7995 25.0394ZM31.3034 25.0394C31.3034 28.4967 28.5008 31.2994 25.0435 31.2994C21.5862 31.2994 18.7835 28.4967 18.7835 25.0394C18.7835 21.5822 21.5862 18.7795 25.0435 18.7795C28.5008 18.7795 31.3034 21.5822 31.3034 25.0394ZM42.5714 25.0394C42.5714 26.0067 42.2533 26.9606 41.6495 27.7121L41.6373 27.7244C40.2843 29.3592 38.0509 31.7944 35.2281 33.8278C32.4154 35.854 28.9098 37.5593 25.0435 37.5593C21.1772 37.5593 17.6716 35.854 14.8588 33.8278C12.0361 31.7944 9.80263 29.3592 8.44973 27.7244L8.4375 27.7121C7.83334 26.9605 7.51562 26.0066 7.51562 25.0394C7.51562 24.0723 7.83334 23.1184 8.4375 22.3667L8.44973 22.3545C9.80263 20.7196 12.0361 18.2845 14.8588 16.251C17.6716 14.2249 21.1772 12.5195 25.0435 12.5195C28.9098 12.5195 32.4154 14.2249 35.2281 16.251C37.6983 18.0304 39.7168 20.1177 41.0895 21.7065L41.6373 22.3545L41.6495 22.3667C42.2533 23.1183 42.5714 24.0722 42.5714 25.0394Z" fill="#284195"/>
</svg>
