<svg width="51" height="51" viewBox="0 0 51 51" fill="none" xmlns="http://www.w3.org/2000/svg">
<path d="M25.4064 19.1465C25.8954 18.6576 26.6879 18.6576 27.1768 19.1465C27.6658 19.6355 27.6658 20.428 27.1768 20.9169L24.306 23.7877H38.8116C39.5031 23.7877 40.0636 24.3483 40.0636 25.0397C40.0636 25.7312 39.5031 26.2917 38.8116 26.2917H24.306L27.1768 29.1625L27.3382 29.3581C27.6591 29.8441 27.6047 30.5051 27.1768 30.9329C26.749 31.3608 26.088 31.4152 25.602 31.0943L25.4064 30.9329L20.3984 25.9249C19.9095 25.436 19.9095 24.6435 20.3984 24.1545L25.4064 19.1465ZM32.5516 16.2757V11.2677C32.5516 11.0188 32.4775 10.7775 32.3413 10.5732L32.1848 10.3825C31.9502 10.1478 31.6317 10.0157 31.2996 10.0157H13.7716C13.5226 10.0157 13.2813 10.0899 13.0772 10.226L12.8864 10.3825C12.6516 10.6173 12.5196 10.9357 12.5196 11.2677V38.8117C12.5196 39.1438 12.6518 39.4623 12.8864 39.6969L13.0772 39.8534C13.2814 39.9896 13.5227 40.0637 13.7716 40.0637H31.2996C31.6316 40.0637 31.9501 39.9317 32.1848 39.6969C32.4196 39.4622 32.5516 39.1437 32.5516 38.8117V33.8037C32.5516 33.1123 33.1122 32.5517 33.8036 32.5517C34.4951 32.5517 35.0556 33.1123 35.0556 33.8037V38.8117C35.0556 39.8079 34.6595 40.7631 33.9552 41.4673C33.251 42.1716 32.2959 42.5677 31.2996 42.5677H13.7716C12.9001 42.5677 12.0605 42.264 11.3923 41.7167L11.116 41.4673C10.4116 40.763 10.0156 39.8077 10.0156 38.8117V11.2677C10.0156 10.2715 10.4117 9.31648 11.116 8.61211L11.3923 8.36269C12.0606 7.81532 12.9002 7.51172 13.7716 7.51172H31.2996C32.2957 7.51172 33.2509 7.90765 33.9552 8.61211L34.2047 8.88843C34.7519 9.55662 35.0556 10.3962 35.0556 11.2677V16.2757C35.0556 16.9672 34.4951 17.5277 33.8036 17.5277C33.1122 17.5277 32.5516 16.9672 32.5516 16.2757Z" fill="#284195"/>
</svg>
