<svg width="51" height="51" viewBox="0 0 51 51" fill="none" xmlns="http://www.w3.org/2000/svg">
<path d="M16.2755 41.316V11.7866L12.1527 15.9094C11.6638 16.3983 10.8713 16.3983 10.3823 15.9094C9.89339 15.4204 9.89339 14.6279 10.3823 14.139L16.6423 7.87903L16.8379 7.71764C17.3239 7.39672 17.9848 7.45119 18.4127 7.87903L24.6726 14.139L24.834 14.3346C25.1549 14.8206 25.1005 15.4815 24.6726 15.9094C24.2448 16.3372 23.5838 16.3917 23.0979 16.0708L22.9022 15.9094L18.7795 11.7866V41.316C18.7795 42.0074 18.2189 42.568 17.5275 42.568C16.836 42.568 16.2755 42.0074 16.2755 41.316ZM31.2994 8.76423C31.2994 8.07277 31.8599 7.51224 32.5514 7.51224C33.2428 7.51224 33.8034 8.07277 33.8034 8.76423V38.2936L37.9261 34.1708C38.415 33.6819 39.2076 33.6819 39.6965 34.1708C40.1854 34.6598 40.1854 35.4523 39.6965 35.9412L33.4366 42.2012C32.9476 42.6901 32.1551 42.6901 31.6662 42.2012L25.4062 35.9412L25.2448 35.7456C24.9239 35.2596 24.9784 34.5987 25.4062 34.1708C25.8341 33.743 26.495 33.6885 26.981 34.0094L27.1766 34.1708L31.2994 38.2936V8.76423Z" fill="#284195"/>
</svg>
