<svg width="51" height="51" viewBox="0 0 51 51" fill="none" xmlns="http://www.w3.org/2000/svg">
<path d="M24.978 10.1208L20.9873 18.5204C20.8579 18.8087 20.6786 19.0723 20.4542 19.2956L20.2024 19.5157C19.8573 19.7789 19.4492 19.9467 19.0164 20.0047L19.0188 20.0072L10.2109 21.3668L10.1204 21.379L10.0813 21.3961L10.0324 21.4695C10.0199 21.5063 10.0159 21.5496 10.025 21.5893L10.0715 21.6749L10.0788 21.6822L16.488 28.1329C16.7993 28.4365 17.0316 28.8128 17.1629 29.2235L17.2411 29.5365C17.3009 29.849 17.3033 30.1702 17.2509 30.4853L17.2533 30.4877L15.7226 39.8312L15.7201 39.8361C15.713 39.88 15.7199 39.9248 15.7348 39.9632L15.7911 40.0415L15.84 40.0635L15.8864 40.0512L23.8214 35.6791L23.8556 35.6619C24.2331 35.4689 24.6516 35.3661 25.0783 35.3661C25.3982 35.3661 25.7131 35.4246 26.0099 35.5348L26.3009 35.6619L26.3352 35.6791L34.2652 40.0512L34.3142 40.0635C34.3271 40.0625 34.3461 40.0585 34.3655 40.0439L34.4217 39.9632L34.434 39.8336L32.9032 30.5953C32.8323 30.1723 32.8638 29.736 32.9937 29.3286C33.1212 28.9292 33.3417 28.5635 33.6393 28.2649L39.9897 21.6944L40.0166 21.6675L40.0606 21.5844L40.0581 21.4695L40.0117 21.3912C39.995 21.3768 39.9789 21.3728 39.9701 21.3716L39.9457 21.3692L31.1353 20.0072C30.7041 19.9487 30.298 19.7778 29.9542 19.5157C29.6107 19.2536 29.344 18.9081 29.1693 18.518L29.1668 18.5204L25.1761 10.1208L25.1639 10.0915L25.1125 10.0279C25.0979 10.0184 25.0864 10.0158 25.0783 10.0157L25.0416 10.0279C25.026 10.0385 25.0071 10.059 24.9927 10.0915L24.978 10.1208ZM31.4703 17.5252C31.4862 17.527 31.5034 17.5301 31.5192 17.5325L40.3296 18.8921L40.3271 18.8946C40.8192 18.9652 41.2772 19.1757 41.65 19.4986C41.9335 19.7442 42.1606 20.046 42.3176 20.3813L42.4496 20.7285L42.5352 21.088C42.5754 21.3311 42.5836 21.5789 42.5572 21.824L42.4912 22.1884C42.3745 22.6581 42.1312 23.0881 41.787 23.433L41.7894 23.4355L35.4414 30.0035L35.4145 30.0304C35.4021 30.0426 35.3889 30.0625 35.3803 30.0891L35.373 30.1796V30.1845L36.9037 39.4228L36.9404 39.7896C36.9519 40.1567 36.8912 40.5249 36.757 40.8704L36.7546 40.8729C36.62 41.2176 36.4167 41.5321 36.1555 41.7947L35.8743 42.0393C35.4751 42.3411 34.998 42.5214 34.4951 42.5577L34.4976 42.5601C33.9944 42.5969 33.4948 42.4843 33.0573 42.2422L25.1614 37.8896C25.133 37.8751 25.1039 37.8701 25.0783 37.87C25.0526 37.87 25.0238 37.8774 24.9951 37.8921L24.9927 37.8896L17.0993 42.2447L17.0968 42.2422C16.6595 42.4837 16.1616 42.5969 15.659 42.5601C15.1569 42.5236 14.6788 42.3412 14.2799 42.0393C13.8825 41.7383 13.5786 41.3304 13.3996 40.8704C13.2206 40.4101 13.1692 39.9089 13.2504 39.4228L14.7811 30.0842L14.7836 30.0744L14.7763 29.9864C14.7674 29.9586 14.7544 29.9374 14.742 29.9253L14.7273 29.9131L8.3109 23.4526L8.30845 23.455C7.94645 23.0966 7.69772 22.6413 7.58464 22.1492C7.47167 21.6574 7.4977 21.1408 7.66045 20.6625L7.80717 20.3153C7.97758 19.9783 8.21944 19.6789 8.51875 19.4399L8.83419 19.2247C9.13747 19.0482 9.47448 18.9358 9.82698 18.8946L18.6374 17.5325L18.6838 17.5252L18.7058 17.4934L18.7254 17.4469L22.7161 9.04492C22.9198 8.60131 23.2443 8.21824 23.6551 7.94454L23.9828 7.75869C24.3231 7.59768 24.6966 7.51172 25.0783 7.51172C25.5871 7.51178 26.0808 7.66433 26.5014 7.94454L26.7998 8.17439C27.0702 8.41738 27.2865 8.71474 27.438 9.04492L31.4287 17.4469L31.4507 17.4934C31.4584 17.5114 31.4657 17.5217 31.4703 17.5252Z" fill="#284195"/>
</svg>
