<svg width="51" height="51" viewBox="0 0 51 51" fill="none" xmlns="http://www.w3.org/2000/svg">
<path d="M23.7916 41.3157V38.8117C23.7916 38.1203 24.3522 37.5597 25.0436 37.5597C25.7351 37.5597 26.2956 38.1203 26.2956 38.8117V41.3157C26.2956 42.0072 25.7351 42.5677 25.0436 42.5677C24.3522 42.5677 23.7916 42.0072 23.7916 41.3157ZM14.4187 33.8942C14.9077 33.4061 15.7005 33.4056 16.1891 33.8942C16.6778 34.3828 16.6772 35.1756 16.1891 35.6646L14.4114 37.4423C13.9225 37.9313 13.1299 37.9313 12.641 37.4423C12.1521 36.9534 12.1521 36.1609 12.641 35.6719L14.4187 33.8942ZM33.8981 33.8942C34.326 33.4663 34.9869 33.4142 35.4729 33.7352L35.6685 33.8942L37.4462 35.6719L37.6076 35.87C37.9281 36.3559 37.8739 37.0147 37.4462 37.4423C37.0186 37.87 36.3598 37.9242 35.8739 37.6037L35.6758 37.4423L33.8981 35.6646L33.7392 35.469C33.4182 34.983 33.4702 34.3221 33.8981 33.8942ZM31.9296 25.0397C31.9296 21.2367 28.8467 18.1537 25.0436 18.1537C21.2406 18.1537 18.1576 21.2367 18.1576 25.0397C18.1576 28.8428 21.2406 31.9257 25.0436 31.9257C28.8467 31.9257 31.9296 28.8428 31.9296 25.0397ZM11.2716 23.7877C11.9631 23.7877 12.5236 24.3483 12.5236 25.0397C12.5236 25.7312 11.9631 26.2917 11.2716 26.2917H8.76762C8.07616 26.2917 7.51562 25.7312 7.51562 25.0397C7.51562 24.3483 8.07616 23.7877 8.76762 23.7877H11.2716ZM41.3196 23.7877C42.0111 23.7877 42.5716 24.3483 42.5716 25.0397C42.5716 25.7312 42.0111 26.2917 41.3196 26.2917H38.8156C38.1242 26.2917 37.5636 25.7312 37.5636 25.0397C37.5636 24.3483 38.1242 23.7877 38.8156 23.7877H41.3196ZM12.641 12.6371C13.0687 12.2094 13.7274 12.1552 14.2133 12.4757L14.4114 12.6371L16.1891 14.4148L16.3481 14.6105C16.6691 15.0964 16.617 15.7574 16.1891 16.1852C15.7613 16.6131 15.1004 16.6652 14.6144 16.3442L14.4187 16.1852L12.641 14.4075L12.4796 14.2094C12.1591 13.7235 12.2133 13.0648 12.641 12.6371ZM35.6758 12.6371C36.1648 12.1482 36.9573 12.1482 37.4462 12.6371C37.9352 13.126 37.9352 13.9186 37.4462 14.4075L35.6685 16.1852C35.1795 16.6733 34.3868 16.6739 33.8981 16.1852C33.4095 15.6966 33.41 14.9038 33.8981 14.4148L35.6758 12.6371ZM23.7916 11.2677V8.76372C23.7916 8.07226 24.3522 7.51172 25.0436 7.51172C25.7351 7.51172 26.2956 8.07226 26.2956 8.76372V11.2677C26.2956 11.9592 25.7351 12.5197 25.0436 12.5197C24.3522 12.5197 23.7916 11.9592 23.7916 11.2677ZM34.4336 25.0397C34.4336 30.2257 30.2296 34.4297 25.0436 34.4297C19.8577 34.4297 15.6536 30.2257 15.6536 25.0397C15.6536 19.8538 19.8577 15.6497 25.0436 15.6497C30.2296 15.6497 34.4336 19.8538 34.4336 25.0397Z" fill="#284195"/>
</svg>
