<svg width="51" height="51" viewBox="0 0 51 51" fill="none" xmlns="http://www.w3.org/2000/svg">
<path d="M10.0156 36.308C10.0156 35.6166 10.5762 35.056 11.2676 35.056C11.9591 35.056 12.5196 35.6166 12.5196 36.308C12.5196 37.3041 12.9156 38.2591 13.62 38.9636C14.3243 39.668 15.2794 40.064 16.2756 40.064H33.8034C34.7995 40.064 35.7546 39.6681 36.459 38.9636C37.1635 38.2592 37.5594 37.3041 37.5594 36.308C37.5594 35.6166 38.12 35.056 38.8114 35.056C39.5029 35.056 40.0634 35.6166 40.0634 36.308C40.0634 37.9682 39.4035 39.56 38.2294 40.734C37.0554 41.908 35.4636 42.568 33.8034 42.568H16.2756C14.6154 42.568 13.0236 41.9081 11.8496 40.734C10.6756 39.56 10.0156 37.9682 10.0156 36.308ZM23.7875 31.3001V11.7866L19.6648 15.9094C19.1758 16.3983 18.3833 16.3983 17.8944 15.9094C17.4054 15.4204 17.4054 14.6279 17.8944 14.139L24.1543 7.87903L24.3499 7.71764C24.8359 7.39672 25.4969 7.45119 25.9247 7.87903L32.1847 14.139C32.6736 14.6279 32.6736 15.4204 32.1847 15.9094C31.6957 16.3983 30.9032 16.3983 30.4143 15.9094L26.2915 11.7866V31.3001C26.2915 31.9915 25.731 32.552 25.0395 32.552C24.3481 32.552 23.7875 31.9915 23.7875 31.3001Z" fill="#284195"/>
</svg>
