<svg width="51" height="51" viewBox="0 0 51 51" fill="none" xmlns="http://www.w3.org/2000/svg">
<path d="M40.0674 41.3155V18.5424C40.0672 18.3707 40.0221 18.2018 39.9353 18.0558C39.8486 17.91 39.7242 17.7921 39.5783 17.7135L25.4714 10.1233C25.3393 10.0524 25.1919 10.0157 25.0435 10.0157C24.8956 10.0158 24.7497 10.0528 24.618 10.1233L10.5111 17.7135C10.3648 17.7921 10.2411 17.9121 10.1541 18.0583C10.0672 18.2045 10.0196 18.3728 10.0196 18.5449V41.3155C10.0196 42.0069 9.45904 42.5675 8.76762 42.5675C8.07619 42.5675 7.51568 42.0069 7.51563 41.3155V18.5449C7.51562 17.923 7.68409 17.3115 8.00224 16.7769C8.32044 16.2423 8.77675 15.8025 9.32514 15.5078L23.4296 7.91764L23.8135 7.74158C24.2046 7.59002 24.6215 7.51181 25.0435 7.51172C25.6066 7.51172 26.1615 7.65112 26.6574 7.91764L40.7643 15.5078C41.3123 15.8028 41.7694 16.2424 42.0872 16.7769C42.4049 17.3115 42.5716 17.9232 42.5714 18.5449V41.3155C42.5713 42.0069 42.0108 42.5675 41.3194 42.5675C40.6279 42.5675 40.0674 42.0069 40.0674 41.3155ZM26.2955 40.0635H32.4723V33.8084H26.2955V40.0635ZM17.6147 40.0635H23.7915V33.8084H17.6147V40.0635ZM21.9551 31.3044H28.1319V25.0518H21.9551V31.3044ZM30.6359 31.3044H32.6386C33.1843 31.3044 33.7097 31.4962 34.1253 31.8399L34.2965 31.9964L34.4505 32.1701C34.7894 32.5878 34.9762 33.1109 34.9763 33.6519V40.22C34.9763 40.8384 34.7329 41.4346 34.2965 41.8754C33.8591 42.3168 33.262 42.5675 32.6386 42.5675H26.1292C25.7458 42.5675 25.3731 42.4715 25.041 42.296C24.7099 42.4702 24.3398 42.5675 23.9578 42.5675H17.4484C16.825 42.5675 16.2279 42.3168 15.7905 41.8754C15.3539 41.4346 15.1107 40.8384 15.1107 40.22V33.6519C15.1107 33.0333 15.3537 32.4373 15.7905 31.9964C16.2279 31.5551 16.825 31.3044 17.4484 31.3044H19.4511V24.8929C19.4514 24.2744 19.6941 23.6781 20.1309 23.2374C20.5683 22.7962 21.1654 22.5478 21.7888 22.5478H28.2982C28.8438 22.5478 29.3693 22.7373 29.7849 23.0809L29.9561 23.2374L30.1101 23.411C30.4491 23.8286 30.6357 24.3519 30.6359 24.8929V31.3044Z" fill="#284195"/>
</svg>
