<svg width="1316" height="451" viewBox="0 0 1316 451" fill="none" xmlns="http://www.w3.org/2000/svg">
<g filter="url(#filter0_d)">
<rect x="7.95166" y="7.95142" width="1304.05" height="434.352" fill="white"/>
<rect x="8.45166" y="8.45142" width="1303.05" height="433.352" stroke="black"/>
</g>
<rect x="0.5" y="0.5" width="1303.05" height="433.352" fill="white" stroke="black"/>
<path d="M55.5053 24.6519C55.3534 24.6519 55.1997 24.6529 55.0478 24.6553C37.8761 24.8937 23.9483 38.9097 24.0001 55.8995C24.0321 63.0621 26.5433 69.9926 31.107 75.5132C32.3422 77.0062 33.4791 78.2837 34.4819 79.4106C38.6949 84.1451 40.8099 86.5213 40.8099 94.2033V108.377C40.8099 108.715 40.9442 109.039 41.1833 109.278C41.4225 109.517 41.7468 109.652 42.0849 109.652H68.9153C69.2534 109.652 69.5777 109.517 69.8169 109.278C70.056 109.039 70.1903 108.715 70.1903 108.377V94.306C70.1903 86.6099 72.3074 84.2122 76.5255 79.4353C77.5691 78.2531 78.7521 76.9137 80.0377 75.3364C84.9112 69.3665 87.3776 61.7908 86.953 54.0959C86.5284 46.4011 83.2434 39.1428 77.7427 33.7453C71.8268 27.8892 63.8295 24.6189 55.5053 24.6519V24.6519ZM53.8536 93.892L48.9155 62.2895L49.4846 62.5545C49.6532 62.6331 49.8369 62.6738 50.0229 62.6738C50.2089 62.6738 50.3927 62.6331 50.5613 62.5545L52.7602 61.5305L54.9598 62.5547C55.1284 62.6333 55.3122 62.674 55.4982 62.674C55.6842 62.674 55.8679 62.6333 56.0366 62.5547L58.2355 61.5305L60.4364 62.5549C60.6049 62.6335 60.7885 62.6742 60.9744 62.6742C61.1603 62.6742 61.344 62.6335 61.5125 62.5549L62.0849 62.2885L57.1467 93.892H53.8536ZM58.2368 96.442H67.6403V100.497H43.3599V96.442H58.2368ZM43.3599 107.102V103.047H67.6403V107.102H43.3599ZM78.0611 73.7252C76.8073 75.2635 75.642 76.5831 74.6139 77.7474C70.3352 82.5924 67.7253 85.5491 67.6422 93.892H59.7275L64.973 60.3209C65.0087 60.0927 64.9817 59.859 64.8949 59.6449C64.808 59.4307 64.6647 59.2442 64.4801 59.1053C64.2955 58.9663 64.0766 58.8802 63.8468 58.856C63.617 58.8318 63.385 58.8705 63.1755 58.968L60.9744 59.9926L58.7725 58.968C58.6039 58.8895 58.4202 58.8488 58.2342 58.8488C58.0483 58.8488 57.8645 58.8895 57.696 58.968L55.4972 59.9922L53.2974 58.9677C53.1289 58.8892 52.9451 58.8486 52.7592 58.8486C52.5732 58.8486 52.3895 58.8892 52.2209 58.9677L50.022 59.992L47.8241 58.9677C47.6146 58.8701 47.3825 58.8313 47.1526 58.8554C46.9228 58.8795 46.7038 58.9656 46.5191 59.1046C46.3344 59.2435 46.1909 59.4301 46.1041 59.6442C46.0172 59.8584 45.9902 60.0922 46.0259 60.3205L51.2715 93.8916H43.3586C43.2962 85.479 40.6826 82.5418 36.3869 77.7144C35.3984 76.6033 34.2777 75.3442 33.072 73.8867C28.8843 68.8218 26.5799 62.463 26.5503 55.8912C26.5025 40.2925 39.3024 27.4237 55.0833 27.2038C55.2242 27.2019 55.3638 27.2008 55.5042 27.2008C63.1582 27.17 70.512 30.1762 75.9526 35.5599C81.0016 40.5118 84.0172 47.1722 84.4074 54.2334C84.7975 61.2947 82.5341 68.2467 78.0615 73.7248L78.0611 73.7252Z" fill="black"/>
<defs>
<filter id="filter0_d" x="3.95166" y="7.95142" width="1312.05" height="442.352" filterUnits="userSpaceOnUse" color-interpolation-filters="sRGB">
<feFlood flood-opacity="0" result="BackgroundImageFix"/>
<feColorMatrix in="SourceAlpha" type="matrix" values="0 0 0 0 0 0 0 0 0 0 0 0 0 0 0 0 0 0 127 0"/>
<feOffset dy="4"/>
<feGaussianBlur stdDeviation="2"/>
<feColorMatrix type="matrix" values="0 0 0 0 0 0 0 0 0 0 0 0 0 0 0 0 0 0 0.25 0"/>
<feBlend mode="normal" in2="BackgroundImageFix" result="effect1_dropShadow"/>
<feBlend mode="normal" in="SourceGraphic" in2="effect1_dropShadow" result="shape"/>
</filter>
</defs>
</svg>
