<svg width="27" height="24" viewBox="0 0 27 24" fill="none" xmlns="http://www.w3.org/2000/svg">
<path d="M13.0583 3.61039C14.2771 1.86928 15.8005 0.824618 17.3675 0.302287C21.4156 -0.916487 26.1601 1.65164 26.1601 6.17852C26.1601 12.6641 17.5416 19.6286 13.0583 23.5896C8.61847 19.6286 0 12.6641 0 6.17852C0 1.65164 4.70098 -0.916487 8.74905 0.302287C10.3596 0.824618 11.8395 1.86928 13.0583 3.61039ZM17.7593 1.47753C15.3217 2.26103 14.2335 4.00214 13.0583 6.04793C11.9266 4.00214 10.8384 2.26103 8.40083 1.47753C5.13626 0.476397 1.21877 2.47867 1.21877 6.17852C1.21877 11.3148 7.095 16.6251 13.0583 21.979C19.0651 16.6251 24.9413 11.3148 24.9413 6.17852C24.9413 2.47867 21.0238 0.476397 17.7593 1.47753Z" fill="#190503"/>
</svg>
