<svg width="65" height="65" viewBox="0 0 65 65" fill="none" xmlns="http://www.w3.org/2000/svg">
<path d="M65 32.5C65 50.4493 50.4493 65 32.5 65C14.5507 65 0 50.4493 0 32.5C0 14.5507 14.5507 0 32.5 0C50.4493 0 65 14.5507 65 32.5Z" fill="#F5EEC9"/>
<path fill-rule="evenodd" clip-rule="evenodd" d="M32.5 62.5926C49.1635 62.5926 62.622 49.0919 62.622 32.5C62.622 15.9081 49.1635 2.40741 32.5 2.40741C15.8365 2.40741 2.37805 15.9081 2.37805 32.5C2.37805 49.0919 15.8365 62.5926 32.5 62.5926ZM32.5 65C50.4493 65 65 50.4493 65 32.5C65 14.5507 50.4493 0 32.5 0C14.5507 0 0 14.5507 0 32.5C0 50.4493 14.5507 65 32.5 65Z" fill="black"/>
<path d="M41.6952 27.9003C41.6698 25.6919 41.302 24.0484 40.5918 22.9699C39.8815 21.8914 38.6259 21.3521 36.825 21.3521H34.0854L34.0474 41.3817C34.0474 42.0751 34.0347 42.7042 34.0093 43.2692C33.984 43.8084 33.9586 44.245 33.9332 44.5788C34.4152 44.5531 34.9352 44.5274 35.4932 44.5017C36.0767 44.4504 36.5967 44.4247 37.0532 44.4247V46.5432H27.3889V44.8484C28.2006 44.8227 28.784 44.6558 29.1391 44.3477C29.5196 44.0138 29.7606 43.5388 29.862 42.9225C29.9635 42.2805 30.0142 41.4973 30.0142 40.5729V21.3906L26.8181 21.4292C25.2708 21.4292 24.142 21.9556 23.4318 23.0084C22.7215 24.0613 22.3664 25.6919 22.3664 27.9003H20.5781L20.8064 19.5803H43.2552L43.4835 27.9003H41.6952Z" fill="black"/>
</svg>
