<svg width="89" height="114" viewBox="0 0 89 114" fill="none" xmlns="http://www.w3.org/2000/svg">
<g clip-path="url(#clip0)">
<path d="M63.7724 10.7664C62.4268 10.2529 61.1658 10.9938 60.068 11.8027C57.1886 14.8786 55.2949 19.1283 53.6726 22.5733C52.7927 24.4464 52.0698 26.0312 51.309 27.6854C51.0993 24.8445 51.0085 22.1979 50.6597 19.4637C50.3366 16.9316 49.9544 14.6716 49.4477 12.8718C48.941 10.9713 47.7584 8.94826 46.0019 8.77093C43.9201 8.65441 42.2778 10.501 41.8963 12.1942C41.2897 13.8621 40.9248 15.9284 40.6393 18.2845C40.0784 22.9132 39.9272 28.6129 39.8871 33.4236C39.3945 35.6734 38.8405 38.0741 37.681 39.7123C36.37 37.0032 34.8075 34.2739 33.0164 31.9988C31.805 30.4601 30.5531 29.135 29.2421 28.1353C27.9311 27.1355 26.5101 26.3105 24.7203 26.5392C22.475 27.4599 22.3443 29.4926 22.5485 31.4018C22.7978 32.9075 23.3107 34.6728 23.9002 36.5686C25.0665 40.3201 26.5846 44.6073 27.1257 47.3282C28.2912 52.057 30.4105 56.6757 32.8548 60.5303L16.3304 99.7242L20.2306 101.386L37.1848 61.2534C37.4629 60.5979 37.3799 59.802 36.9722 59.2157C35.0286 56.3744 31.6581 49.181 31.3308 46.7804C30.5174 42.7635 29.0615 38.8114 27.9645 35.3058C27.5442 33.9538 27.3233 32.9218 27.091 31.9175C27.8884 32.5929 28.7616 33.4723 29.676 34.6339C31.7952 37.3257 33.8722 40.9836 35.0509 44.0658C35.5147 45.2498 37.1765 45.7685 38.231 45.0585C42.1196 42.4558 43.5403 38.1253 44.0923 33.9982C44.31 28.8548 44.3152 23.5084 44.8661 18.7965C45.0488 17.2886 45.3365 16.3118 45.5939 15.2595C45.9007 16.6087 46.1781 18.079 46.4232 20.0005C47.0422 24.8525 47.4514 30.7973 47.6629 34.8801C47.6938 35.7231 48.2793 36.5207 49.0764 36.8061C50.1599 37.0575 50.8926 36.6985 51.6516 36.0816C52.645 34.9603 53.3136 33.4558 53.8765 32.2896C54.9349 30.0945 56.2186 27.2374 57.5502 24.4029C58.8605 21.6138 60.2219 18.8803 61.4089 17.0008C60.9876 19.126 60.1568 21.9158 59.2205 24.769C58.2495 27.7275 57.2119 30.7039 56.4802 33.0131C55.9878 34.4362 55.653 35.9183 55.5143 37.2397C55.519 38.3979 56.1169 39.1448 57.103 39.5769C58.4035 40.0259 58.9609 39.462 59.3378 39.226C60.5132 38.4372 61.5045 37.2434 62.3123 36.3242C63.824 34.6026 65.6776 32.337 67.549 30.1345C68.4863 29.0314 69.2987 28.2496 70.1969 27.2603C69.3916 28.5839 68.7287 29.7355 67.792 31.1655C66.0796 33.7799 64.3091 36.397 63.0077 38.4935C62.1514 39.7997 61.452 41.1807 60.9914 42.4978C60.7431 43.4459 61.0557 44.3681 61.5689 44.9069C62.6873 45.8353 63.8208 45.6574 64.9762 45.2413C67.8292 43.849 70.6286 41.843 73.0439 40.2393C74.5023 39.2714 75.7629 38.5308 77.0246 37.7901C76.4485 38.5212 76.0518 39.1426 75.2886 39.9619C72.4891 42.967 68.7068 46.2531 66.2028 48.0149C65.8884 48.2334 65.6353 48.5385 65.4789 48.8874C62.1187 56.3314 57.4555 62.7936 51.5155 64.131C50.7991 64.2818 50.181 64.8275 49.9447 65.5179L35.7604 106.607L39.7894 107.998L53.6382 67.8804C60.9633 65.6115 65.7656 58.4684 69.142 51.1341C71.9662 49.0858 75.5263 45.9571 78.4087 42.863C80.429 40.6763 82.2425 38.4859 83.137 35.9014C83.3381 35.0812 83.38 33.9234 82.6382 32.9582C81.6398 31.8867 80.5366 31.8158 79.2682 32.0053C76.0966 32.956 73.1491 35.071 70.6664 36.7176C69.7724 37.3109 69.0623 37.7332 68.2201 38.2935C69.2289 36.7481 70.2028 35.2657 71.3489 33.5158C73.0843 30.8664 74.7783 28.1899 75.9355 25.9441C76.8551 24.3368 77.3146 22.75 77.3489 21.1354C77.2631 20.4858 76.8703 19.5852 76.1154 19.0961C75.4084 18.638 74.5645 18.5952 73.9612 18.7032C72.3364 19.103 70.9437 20.318 69.8949 21.2982C68.147 22.9383 66.206 25.1578 64.301 27.3998C63.4172 28.44 62.7302 29.2725 61.9059 30.256C62.3858 28.8431 62.768 27.6304 63.2711 26.0971C64.2767 22.0088 66.2961 17.9736 65.9739 13.9817C65.8583 12.4096 65.002 11.2164 63.7725 10.7663L63.7724 10.7664Z" fill="#190503"/>
</g>
<defs>
<clipPath id="clip0">
<rect width="89" height="114" fill="white"/>
</clipPath>
</defs>
</svg>
